<svg xmlns="http://www.w3.org/2000/svg" width="158" height="343" viewBox="0 0 158 343"><rect x="0" y="0" width="160" height="345" fill="rgb(255,255,255)"/><g transform="translate(0,0.00)"><path d="M78.48,75.60 C78.48,81.87 78.48,100.67 78.48,113.20 C78.48,125.73 78.48,144.53 78.48,150.80" fill="none" stroke="rgb(51,51,51)" stroke-width="1.5"/><path d="M74.48,140.80 L78.48,150.80 L82.48,140.80" fill="none" stroke="rgb(51,51,51)" stroke-width="1.5"/><rect x="57.28" y="101.60" width="42.40" height="23.20" fill="rgb(255,255,255)" fill-opacity="0.85"/><text x="78.48" y="113.20" text-anchor="middle" dominant-baseline="central" font-family="sans-serif" font-size="16" fill="rgb(51,51,51)">Uses</text><path d="M78.48,208.40 C78.48,214.67 78.48,233.47 78.48,246.00 C78.48,258.53 78.48,277.33 78.48,283.60" fill="none" stroke="rgb(51,51,51)" stroke-width="1.5"/><path d="M74.48,273.60 L78.48,283.60 L82.48,273.60" fill="none" stroke="rgb(51,51,51)" stroke-width="1.5"/><rect x="52.48" y="234.40" width="52.00" height="23.20" fill="rgb(255,255,255)" fill-opacity="0.85"/><text x="78.48" y="246.00" text-anchor="middle" dominant-baseline="central" font-family="sans-serif" font-size="16" fill="rgb(51,51,51)">Calls</text><rect x="34.68" y="0.00" width="87.59" height="75.60" rx="3" ry="3" fill="rgb(8,67,124)" stroke="rgb(7,51,99)" stroke-width="1.5"/><circle cx="78.48" cy="11.00" r="9.00" fill="rgb(8,67,124)" stroke="rgb(7,51,99)" stroke-width="1.5"/><text x="78.48" y="36.40" text-anchor="middle" dominant-baseline="central" font-family="sans-serif" font-size="16" font-weight="bold" fill="rgb(255,255,255)">User</text><text x="78.48" y="57.20" text-anchor="middle" dominant-baseline="central" font-family="sans-serif" font-size="16" fill="rgb(255,255,255)">[Person]</text><rect x="0.00" y="150.80" width="156.95" height="57.60" rx="3" ry="3" fill="rgb(236,236,255)" stroke="rgb(147,112,219)" stroke-width="1.5"/><text x="78.48" y="169.20" text-anchor="middle" dominant-baseline="central" font-family="sans-serif" font-size="16" font-weight="bold" fill="rgb(51,51,51)">Web App</text><text x="78.48" y="190.00" text-anchor="middle" dominant-baseline="central" font-family="sans-serif" font-size="16" fill="rgb(51,51,51)">[Container: React]</text><rect x="4.45" y="283.60" width="148.05" height="57.60" rx="3" ry="3" fill="rgb(236,236,255)" stroke="rgb(147,112,219)" stroke-width="1.5"/><text x="78.48" y="302.00" text-anchor="middle" dominant-baseline="central" font-family="sans-serif" font-size="16" font-weight="bold" fill="rgb(51,51,51)">API</text><text x="78.48" y="322.80" text-anchor="middle" dominant-baseline="central" font-family="sans-serif" font-size="16" fill="rgb(51,51,51)">[Container: Rust]</text></g></svg>