<svg xmlns="http://www.w3.org/2000/svg" width="217" height="224" viewBox="0 0 217 224"><rect x="0" y="0" width="219" height="226" fill="rgb(255,255,255)"/><path d="M145.26,109.80 C147.61,112.47 157.01,118.97 159.36,125.80 C161.71,132.63 159.36,146.63 159.36,150.80" fill="none" stroke="rgb(51,51,51)" stroke-width="1.5"/><polygon points="137.33,100.80 150.51,105.17 140.01,114.43" fill="rgb(255,255,255)" stroke="rgb(51,51,51)" stroke-width="1.5"/><path d="M40.55,109.80 C38.20,112.47 28.80,118.17 26.45,125.80 C24.10,133.43 26.45,150.63 26.45,155.60" fill="none" stroke="rgb(51,51,51)" stroke-width="1.5"/><polygon points="48.48,100.80 45.80,114.43 35.30,105.17" fill="rgb(255,255,255)" stroke="rgb(51,51,51)" stroke-width="1.5"/><rect x="31.10" y="0.00" width="123.61" height="100.80" fill="rgb(236,236,255)" stroke="rgb(147,112,219)" stroke-width="1.5"/><line x1="31.10" y1="27.20" x2="154.71" y2="27.20" stroke="rgb(147,112,219)" stroke-width="1.5"/><line x1="31.10" y1="73.60" x2="154.71" y2="73.60" stroke="rgb(147,112,219)" stroke-width="1.5"/><text x="92.90" y="13.60" text-anchor="middle" dominant-baseline="central" font-family="sans-serif" font-size="16" font-weight="bold" fill="rgb(51,51,51)">Animal</text><text x="45.10" y="40.80" text-anchor="start" dominant-baseline="central" font-family="sans-serif" font-size="16" fill="rgb(51,51,51)">+int age</text><text x="45.10" y="60.00" text-anchor="start" dominant-baseline="central" font-family="sans-serif" font-size="16" fill="rgb(51,51,51)">+String name</text><text x="45.10" y="87.20" text-anchor="start" dominant-baseline="central" font-family="sans-serif" font-size="16" fill="rgb(51,51,51)">+eat() void</text><rect x="102.90" y="150.80" width="112.92" height="72.00" fill="rgb(236,236,255)" stroke="rgb(147,112,219)" stroke-width="1.5"/><line x1="102.90" y1="178.00" x2="215.82" y2="178.00" stroke="rgb(147,112,219)" stroke-width="1.5"/><line x1="102.90" y1="195.60" x2="215.82" y2="195.60" stroke="rgb(147,112,219)" stroke-width="1.5"/><text x="159.36" y="164.40" text-anchor="middle" dominant-baseline="central" font-family="sans-serif" font-size="16" font-weight="bold" fill="rgb(51,51,51)">Dog</text><text x="116.90" y="209.20" text-anchor="start" dominant-baseline="central" font-family="sans-serif" font-size="16" fill="rgb(51,51,51)">+bark() void</text><rect x="0.00" y="155.60" width="52.90" height="62.40" fill="rgb(236,236,255)" stroke="rgb(147,112,219)" stroke-width="1.5"/><line x1="0.00" y1="182.80" x2="52.90" y2="182.80" stroke="rgb(147,112,219)" stroke-width="1.5"/><line x1="0.00" y1="200.40" x2="52.90" y2="200.40" stroke="rgb(147,112,219)" stroke-width="1.5"/><text x="26.45" y="169.20" text-anchor="middle" dominant-baseline="central" font-family="sans-serif" font-size="16" font-weight="bold" fill="rgb(51,51,51)">Cat</text></svg>