<svg xmlns="http://www.w3.org/2000/svg" width="255" height="257" viewBox="0 0 255 257"><rect x="0" y="0" width="257" height="259" fill="rgb(255,255,255)"/><path d="M148.67,35.20 C156.93,41.47 189.98,60.27 198.24,72.80 C206.51,85.33 198.24,104.13 198.24,110.40" fill="none" stroke="rgb(51,51,51)" stroke-width="1.5"/><line x1="154.87" y1="33.63" x2="148.83" y2="41.60" stroke="rgb(51,51,51)" stroke-width="1.5"/><line x1="158.06" y1="36.05" x2="152.02" y2="44.02" stroke="rgb(51,51,51)" stroke-width="1.5"/><line x1="198.24" y1="98.40" x2="198.24" y2="108.40" stroke="rgb(51,51,51)" stroke-width="1.5"/><line x1="198.24" y1="98.40" x2="203.24" y2="108.40" stroke="rgb(51,51,51)" stroke-width="1.5"/><line x1="198.24" y1="98.40" x2="193.24" y2="108.40" stroke="rgb(51,51,51)" stroke-width="1.5"/><line x1="193.24" y1="96.40" x2="203.24" y2="96.40" stroke="rgb(51,51,51)" stroke-width="1.5"/><circle cx="198.24" cy="91.40" r="3.50" fill="none" stroke="rgb(51,51,51)" stroke-width="1.5"/><rect x="167.44" y="61.20" width="61.60" height="23.20" fill="rgb(255,255,255)" fill-opacity="0.85"/><text x="198.24" y="72.80" text-anchor="middle" dominant-baseline="central" font-family="sans-serif" font-size="16" fill="rgb(51,51,51)">places</text><path d="M198.24,145.60 C198.24,151.87 198.24,170.67 198.24,183.20 C198.24,195.73 198.24,214.53 198.24,220.80" fill="none" stroke="rgb(51,51,51)" stroke-width="1.5"/><line x1="203.24" y1="149.60" x2="193.24" y2="149.60" stroke="rgb(51,51,51)" stroke-width="1.5"/><line x1="203.24" y1="153.60" x2="193.24" y2="153.60" stroke="rgb(51,51,51)" stroke-width="1.5"/><line x1="198.24" y1="208.80" x2="198.24" y2="218.80" stroke="rgb(51,51,51)" stroke-width="1.5"/><line x1="198.24" y1="208.80" x2="203.24" y2="218.80" stroke="rgb(51,51,51)" stroke-width="1.5"/><line x1="198.24" y1="208.80" x2="193.24" y2="218.80" stroke="rgb(51,51,51)" stroke-width="1.5"/><line x1="193.24" y1="206.80" x2="203.24" y2="206.80" stroke="rgb(51,51,51)" stroke-width="1.5"/><rect x="157.84" y="171.60" width="80.80" height="23.20" fill="rgb(255,255,255)" fill-opacity="0.85"/><text x="198.24" y="183.20" text-anchor="middle" dominant-baseline="central" font-family="sans-serif" font-size="16" fill="rgb(51,51,51)">contains</text><path d="M102.25,35.20 C93.99,41.47 60.94,60.27 52.68,72.80 C44.41,85.33 52.68,104.13 52.68,110.40" fill="none" stroke="rgb(51,51,51)" stroke-width="1.5" stroke-dasharray="4 3"/><line x1="92.69" y1="42.45" x2="100.66" y2="36.41" stroke="rgb(51,51,51)" stroke-width="1.5"/><line x1="92.69" y1="42.45" x2="97.64" y2="32.42" stroke="rgb(51,51,51)" stroke-width="1.5"/><line x1="92.69" y1="42.45" x2="103.68" y2="40.39" stroke="rgb(51,51,51)" stroke-width="1.5"/><line x1="94.12" y1="47.64" x2="88.08" y2="39.68" stroke="rgb(51,51,51)" stroke-width="1.5"/><line x1="52.68" y1="98.40" x2="52.68" y2="108.40" stroke="rgb(51,51,51)" stroke-width="1.5"/><line x1="52.68" y1="98.40" x2="57.68" y2="108.40" stroke="rgb(51,51,51)" stroke-width="1.5"/><line x1="52.68" y1="98.40" x2="47.68" y2="108.40" stroke="rgb(51,51,51)" stroke-width="1.5"/><line x1="47.68" y1="96.40" x2="57.68" y2="96.40" stroke="rgb(51,51,51)" stroke-width="1.5"/><rect x="31.48" y="61.20" width="42.40" height="23.20" fill="rgb(255,255,255)" fill-opacity="0.85"/><text x="52.68" y="72.80" text-anchor="middle" dominant-baseline="central" font-family="sans-serif" font-size="16" fill="rgb(51,51,51)">uses</text><rect x="65.68" y="0.00" width="119.55" height="35.20" fill="rgb(236,236,255)" stroke="rgb(147,112,219)" stroke-width="1.5"/><text x="125.46" y="17.60" text-anchor="middle" dominant-baseline="central" font-family="sans-serif" font-size="16" fill="rgb(51,51,51)">CUSTOMER</text><rect x="155.35" y="110.40" width="85.78" height="35.20" fill="rgb(236,236,255)" stroke="rgb(147,112,219)" stroke-width="1.5"/><text x="198.24" y="128.00" text-anchor="middle" dominant-baseline="central" font-family="sans-serif" font-size="16" fill="rgb(51,51,51)">ORDER</text><rect x="142.90" y="220.80" width="110.69" height="35.20" fill="rgb(236,236,255)" stroke="rgb(147,112,219)" stroke-width="1.5"/><text x="198.24" y="238.40" text-anchor="middle" dominant-baseline="central" font-family="sans-serif" font-size="16" fill="rgb(51,51,51)">LINE_ITEM</text><rect x="0.00" y="110.40" width="105.35" height="35.20" fill="rgb(236,236,255)" stroke="rgb(147,112,219)" stroke-width="1.5"/><text x="52.68" y="128.00" text-anchor="middle" dominant-baseline="central" font-family="sans-serif" font-size="16" fill="rgb(51,51,51)">ADDRESS</text></svg>