<svg xmlns="http://www.w3.org/2000/svg" width="218" height="37" viewBox="0 0 218 37"><rect x="0" y="0" width="219" height="38" fill="rgb(255,255,255)"/><defs><marker id="arrow" markerWidth="9" markerHeight="8" refX="9" refY="4" orient="auto" markerUnits="userSpaceOnUse"><path d="M0,0 L9,4 L0,8 Z" fill="rgb(51,51,51)"/></marker><marker id="arrow-start" markerWidth="9" markerHeight="8" refX="0" refY="4" orient="auto" markerUnits="userSpaceOnUse"><path d="M9,0 L0,4 L9,8 Z" fill="rgb(51,51,51)"/></marker></defs><path d="M178.23,17.60 C174.06,17.60 160.06,17.60 153.23,17.60 C146.39,17.60 139.89,17.60 137.23,17.60" fill="none" stroke="rgb(51,51,51)" stroke-width="1.5" marker-end="url(#arrow)"/><path d="M89.55,17.60 C85.39,17.60 71.39,17.60 64.55,17.60 C57.72,17.60 51.22,17.60 48.55,17.60" fill="none" stroke="rgb(51,51,51)" stroke-width="1.5" marker-end="url(#arrow)"/><rect x="178.23" y="0.00" width="38.67" height="35.20" fill="rgb(236,236,255)" stroke="rgb(147,112,219)" stroke-width="1.5"/><text x="197.56" y="17.60" text-anchor="middle" dominant-baseline="central" font-family="sans-serif" font-size="16" fill="rgb(51,51,51)">A</text><rect x="89.55" y="0.00" width="38.67" height="35.20" fill="rgb(236,236,255)" stroke="rgb(147,112,219)" stroke-width="1.5"/><text x="108.89" y="17.60" text-anchor="middle" dominant-baseline="central" font-family="sans-serif" font-size="16" fill="rgb(51,51,51)">B</text><rect x="0.00" y="0.00" width="39.55" height="35.20" fill="rgb(236,236,255)" stroke="rgb(147,112,219)" stroke-width="1.5"/><text x="19.78" y="17.60" text-anchor="middle" dominant-baseline="central" font-family="sans-serif" font-size="16" fill="rgb(51,51,51)">C</text></svg>