<svg xmlns="http://www.w3.org/2000/svg" width="211" height="251" viewBox="0 0 211 251"><rect x="0" y="0" width="212" height="252" fill="rgb(255,255,255)"/><defs><marker id="arrow" markerWidth="9" markerHeight="8" refX="9" refY="4" orient="auto" markerUnits="userSpaceOnUse"><path d="M0,0 L9,4 L0,8 Z" fill="rgb(51,51,51)"/></marker><marker id="arrow-start" markerWidth="9" markerHeight="8" refX="0" refY="4" orient="auto" markerUnits="userSpaceOnUse"><path d="M9,0 L0,4 L9,8 Z" fill="rgb(51,51,51)"/></marker></defs><path d="M101.46,35.20 C101.46,39.37 101.46,53.37 101.46,60.20 C101.46,67.03 101.46,73.53 101.46,76.20" fill="none" stroke="rgb(51,51,51)" stroke-width="1.5" marker-end="url(#arrow)"/><path d="M128.66,139.60 C134.92,145.87 159.98,166.17 166.25,177.20 C172.52,188.23 166.25,201.03 166.25,205.80" fill="none" stroke="rgb(51,51,51)" stroke-width="1.5" marker-end="url(#arrow)"/><path d="M74.27,139.60 C68.00,145.87 42.94,166.17 36.68,177.20 C30.41,188.23 36.68,201.03 36.68,205.80" fill="none" stroke="rgb(51,51,51)" stroke-width="1.5" marker-end="url(#arrow)"/><rect x="154.65" y="165.60" width="23.20" height="23.20" fill="rgb(255,255,255)"/><text x="166.25" y="177.20" text-anchor="middle" dominant-baseline="central" font-family="sans-serif" font-size="16" fill="rgb(51,51,51)">ok</text><rect x="15.48" y="165.60" width="42.40" height="23.20" fill="rgb(255,255,255)"/><text x="36.68" y="177.20" text-anchor="middle" dominant-baseline="central" font-family="sans-serif" font-size="16" fill="rgb(51,51,51)">fail</text><rect x="70.57" y="0.00" width="61.79" height="35.20" fill="rgb(255,179,179)" stroke="rgb(204,0,0)" stroke-width="3"/><text x="101.46" y="17.60" text-anchor="middle" dominant-baseline="central" font-family="sans-serif" font-size="16" fill="rgb(51,51,51)">Start</text><polygon points="101.46,85.20 180.01,112.40 101.46,139.60 22.91,112.40" fill="rgb(236,236,255)" stroke="rgb(147,112,219)" stroke-width="1.5"/><text x="101.46" y="112.40" text-anchor="middle" dominant-baseline="central" font-family="sans-serif" font-size="16" fill="rgb(51,51,51)">Check</text><rect x="123.35" y="214.80" width="85.80" height="35.20" fill="rgb(179,217,255)" stroke="rgb(0,102,204)" stroke-width="2"/><text x="166.25" y="232.40" text-anchor="middle" dominant-baseline="central" font-family="sans-serif" font-size="16" fill="rgb(51,51,51)">Process</text><rect x="0.00" y="214.80" width="73.35" height="35.20" fill="rgb(255,221,221)" stroke="rgb(204,0,0)" stroke-width="3"/><text x="36.68" y="232.40" text-anchor="middle" dominant-baseline="central" font-family="sans-serif" font-size="16" fill="rgb(51,51,51)">Reject</text></svg>