<svg xmlns="http://www.w3.org/2000/svg" width="203" height="207" viewBox="0 0 203 207"><rect x="0" y="0" width="204" height="208" fill="rgb(255,255,255)"/><defs><marker id="arrow" markerWidth="9" markerHeight="8" refX="9" refY="4" orient="auto" markerUnits="userSpaceOnUse"><path d="M0,0 L9,4 L0,8 Z" fill="rgb(51,51,51)"/></marker><marker id="arrow-start" markerWidth="9" markerHeight="8" refX="0" refY="4" orient="auto" markerUnits="userSpaceOnUse"><path d="M9,0 L0,4 L9,8 Z" fill="rgb(51,51,51)"/></marker></defs><path d="M134.96,35.20 C140.62,39.37 163.27,53.37 168.94,60.20 C174.60,67.03 168.94,73.53 168.94,76.20" fill="none" stroke="rgb(51,51,51)" stroke-width="1.5" marker-end="url(#arrow)"/><path d="M87.12,35.20 C81.45,39.37 58.80,53.37 53.14,60.20 C47.47,67.03 53.14,73.53 53.14,76.20" fill="none" stroke="rgb(51,51,51)" stroke-width="1.5" marker-end="url(#arrow)"/><path d="M53.14,120.40 C53.14,124.57 53.14,138.57 53.14,145.40 C53.14,152.23 53.14,158.73 53.14,161.40" fill="none" stroke="rgb(51,51,51)" stroke-width="1.5" marker-end="url(#arrow)"/><rect x="57.90" y="0.00" width="106.27" height="35.20" fill="rgb(236,236,255)" stroke="rgb(147,112,219)" stroke-width="1.5"/><text x="111.04" y="17.60" text-anchor="middle" dominant-baseline="central" font-family="sans-serif" font-size="16" fill="rgb(51,51,51)">Homepage</text><rect x="136.71" y="85.20" width="64.45" height="35.20" fill="rgb(236,236,255)" stroke="rgb(147,112,219)" stroke-width="1.5"/><text x="168.94" y="102.80" text-anchor="middle" dominant-baseline="central" font-family="sans-serif" font-size="16" fill="rgb(51,51,51)">Docs</text><rect x="19.56" y="85.20" width="67.15" height="35.20" fill="rgb(236,236,255)" stroke="rgb(147,112,219)" stroke-width="1.5"/><text x="53.14" y="102.80" text-anchor="middle" dominant-baseline="central" font-family="sans-serif" font-size="16" fill="rgb(51,51,51)">Login</text><rect x="0.00" y="170.40" width="106.27" height="35.20" fill="rgb(236,236,255)" stroke="rgb(147,112,219)" stroke-width="1.5"/><text x="53.14" y="188.00" text-anchor="middle" dominant-baseline="central" font-family="sans-serif" font-size="16" fill="rgb(51,51,51)">Dashboard</text></svg>