<svg xmlns="http://www.w3.org/2000/svg" width="41" height="207" viewBox="0 0 41 207"><rect x="0" y="0" width="42" height="208" fill="rgb(255,255,255)"/><defs><marker id="arrow" markerWidth="9" markerHeight="8" refX="9" refY="4" orient="auto" markerUnits="userSpaceOnUse"><path d="M0,0 L9,4 L0,8 Z" fill="rgb(51,51,51)"/></marker><marker id="arrow-start" markerWidth="9" markerHeight="8" refX="0" refY="4" orient="auto" markerUnits="userSpaceOnUse"><path d="M9,0 L0,4 L9,8 Z" fill="rgb(51,51,51)"/></marker></defs><path d="M19.78,170.40 C19.78,166.23 19.78,152.23 19.78,145.40 C19.78,138.57 19.78,132.07 19.78,129.40" fill="none" stroke="rgb(51,51,51)" stroke-width="1.5" marker-end="url(#arrow)"/><path d="M19.78,85.20 C19.78,81.03 19.78,67.03 19.78,60.20 C19.78,53.37 19.78,46.87 19.78,44.20" fill="none" stroke="rgb(51,51,51)" stroke-width="1.5" marker-end="url(#arrow)"/><rect x="0.44" y="170.40" width="38.67" height="35.20" fill="rgb(236,236,255)" stroke="rgb(147,112,219)" stroke-width="1.5"/><text x="19.78" y="188.00" text-anchor="middle" dominant-baseline="central" font-family="sans-serif" font-size="16" fill="rgb(51,51,51)">A</text><rect x="0.44" y="85.20" width="38.67" height="35.20" fill="rgb(236,236,255)" stroke="rgb(147,112,219)" stroke-width="1.5"/><text x="19.78" y="102.80" text-anchor="middle" dominant-baseline="central" font-family="sans-serif" font-size="16" fill="rgb(51,51,51)">B</text><rect x="0.00" y="0.00" width="39.55" height="35.20" fill="rgb(236,236,255)" stroke="rgb(147,112,219)" stroke-width="1.5"/><text x="19.78" y="17.60" text-anchor="middle" dominant-baseline="central" font-family="sans-serif" font-size="16" fill="rgb(51,51,51)">C</text></svg>