<svg xmlns="http://www.w3.org/2000/svg" width="934" height="160" viewBox="0 0 934 160"><rect x="0" y="0" width="935" height="161" fill="rgb(255,255,255)"/><defs><marker id="arrow" markerWidth="9" markerHeight="8" refX="9" refY="4" orient="auto" markerUnits="userSpaceOnUse"><path d="M0,0 L9,4 L0,8 Z" fill="rgb(51,51,51)"/></marker><marker id="arrow-start" markerWidth="9" markerHeight="8" refX="0" refY="4" orient="auto" markerUnits="userSpaceOnUse"><path d="M9,0 L0,4 L9,8 Z" fill="rgb(51,51,51)"/></marker></defs><path d="M483.05,20.53 C551.70,27.14 826.33,47.76 894.99,60.20 C963.65,72.64 894.99,89.36 894.99,95.19" fill="none" stroke="rgb(51,51,51)" stroke-width="1.5" marker-end="url(#arrow)"/><path d="M483.05,22.64 C520.90,28.90 672.33,49.71 710.18,60.20 C748.04,70.69 710.18,81.36 710.18,85.59" fill="none" stroke="rgb(51,51,51)" stroke-width="1.5" marker-end="url(#arrow)"/><path d="M483.05,35.18 C490.27,39.35 519.15,53.36 526.37,60.20 C533.58,67.04 526.37,73.53 526.37,76.20" fill="none" stroke="rgb(51,51,51)" stroke-width="1.5" marker-end="url(#arrow)"/><path d="M422.15,35.18 C414.93,39.35 386.05,50.20 378.83,60.20 C371.61,70.20 378.83,89.36 378.83,95.19" fill="none" stroke="rgb(51,51,51)" stroke-width="1.5" marker-end="url(#arrow)"/><path d="M422.15,22.89 C386.32,29.10 243.01,48.15 207.19,60.20 C171.36,72.25 207.19,89.36 207.19,95.19" fill="none" stroke="rgb(51,51,51)" stroke-width="1.5" marker-end="url(#arrow)"/><path d="M422.15,20.81 C359.83,27.37 110.56,48.64 48.25,60.20 C-14.07,71.76 48.25,85.19 48.25,90.19" fill="none" stroke="rgb(51,51,51)" stroke-width="1.5" marker-end="url(#arrow)"/><rect x="422.15" y="0.00" width="60.90" height="35.20" fill="rgb(236,236,255)" stroke="rgb(147,112,219)" stroke-width="1.5"/><text x="452.60" y="17.60" text-anchor="middle" dominant-baseline="central" font-family="sans-serif" font-size="16" fill="rgb(51,51,51)">Rect</text><rect x="857.41" y="104.19" width="75.15" height="35.20" rx="6" ry="6" fill="rgb(236,236,255)" stroke="rgb(147,112,219)" stroke-width="1.5"/><text x="894.99" y="121.79" text-anchor="middle" dominant-baseline="central" font-family="sans-serif" font-size="16" fill="rgb(51,51,51)">Round</text><polygon points="710.18,94.59 807.41,121.79 710.18,148.99 612.95,121.79" fill="rgb(236,236,255)" stroke="rgb(147,112,219)" stroke-width="1.5"/><text x="710.18" y="121.79" text-anchor="middle" dominant-baseline="central" font-family="sans-serif" font-size="16" fill="rgb(51,51,51)">Diamond</text><ellipse cx="526.37" cy="121.79" rx="36.59" ry="36.59" fill="rgb(236,236,255)" stroke="rgb(147,112,219)" stroke-width="1.5"/><text x="526.37" y="121.79" text-anchor="middle" dominant-baseline="central" font-family="sans-serif" font-size="16" fill="rgb(51,51,51)">Circle</text><rect x="317.88" y="104.19" width="121.90" height="35.20" rx="17.60" ry="17.60" fill="rgb(236,236,255)" stroke="rgb(147,112,219)" stroke-width="1.5"/><text x="378.83" y="121.79" text-anchor="middle" dominant-baseline="central" font-family="sans-serif" font-size="16" fill="rgb(51,51,51)">Stadium</text><rect x="146.49" y="104.19" width="121.39" height="35.20" fill="rgb(236,236,255)" stroke="rgb(147,112,219)" stroke-width="1.5"/><line x1="154.49" y1="104.19" x2="154.49" y2="139.39" fill="rgb(236,236,255)" stroke="rgb(147,112,219)" stroke-width="1.5"/><line x1="259.88" y1="104.19" x2="259.88" y2="139.39" fill="rgb(236,236,255)" stroke="rgb(147,112,219)" stroke-width="1.5"/><text x="207.19" y="121.79" text-anchor="middle" dominant-baseline="central" font-family="sans-serif" font-size="16" fill="rgb(51,51,51)">Subroutine</text><path d="M0.00,107.19 L0.00,136.39 A48.25,8.00 0 0 0 96.49,136.39 L96.49,107.19 A48.25,8.00 0 0 1 0.00,107.19 M0.00,107.19 A48.25,8.00 0 0 0 96.49,107.19 A48.25,8.00 0 0 0 0.00,107.19 Z" fill="rgb(236,236,255)" stroke="rgb(147,112,219)" stroke-width="1.5"/><text x="48.25" y="121.79" text-anchor="middle" dominant-baseline="central" font-family="sans-serif" font-size="16" fill="rgb(51,51,51)">Database</text></svg>