<svg xmlns="http://www.w3.org/2000/svg" width="294" height="452" viewBox="0 0 294 452"><rect x="0" y="0" width="296" height="454" fill="rgb(255,255,255)"/><path d="M 60.23,225.30 Q 137.93,225.30 215.62,41.60" fill="none" stroke="rgb(51,51,51)" stroke-width="1.5"/><path d="M 60.23,225.30 Q 137.93,225.30 215.62,164.07" fill="none" stroke="rgb(51,51,51)" stroke-width="1.5"/><path d="M 60.23,225.30 Q 137.93,225.30 215.62,286.54" fill="none" stroke="rgb(51,51,51)" stroke-width="1.5"/><path d="M 60.23,225.30 Q 137.93,225.30 215.62,409.01" fill="none" stroke="rgb(51,51,51)" stroke-width="1.5"/><circle cx="60.23" cy="225.30" r="36.23" fill="rgb(236,236,255)" stroke="rgb(147,112,219)" stroke-width="3"/><text x="60.23" y="225.30" text-anchor="middle" dominant-baseline="central" font-family="sans-serif" font-size="16" fill="rgb(51,51,51)">center</text><rect x="177.16" y="24.00" width="76.92" height="35.20" fill="rgb(236,236,255)" stroke="rgb(147,112,219)" stroke-width="1.5"/><text x="215.62" y="41.60" text-anchor="middle" dominant-baseline="central" font-family="sans-serif" font-size="16" fill="rgb(51,51,51)">square</text><rect x="181.16" y="146.47" width="68.92" height="35.20" rx="12" ry="12" fill="rgb(236,236,255)" stroke="rgb(147,112,219)" stroke-width="1.5"/><text x="215.62" y="164.07" text-anchor="middle" dominant-baseline="central" font-family="sans-serif" font-size="16" fill="rgb(51,51,51)">round</text><rect x="166.07" y="268.94" width="99.12" height="35.20" rx="12" ry="12" fill="rgb(236,236,255)" stroke="rgb(147,112,219)" stroke-width="1.5"/><text x="215.62" y="286.54" text-anchor="middle" dominant-baseline="central" font-family="sans-serif" font-size="16" fill="rgb(51,51,51)">C))cloud((</text><polygon points="162.93,409.01 189.28,391.41 241.97,391.41 268.32,409.01 241.97,426.61 189.28,426.61" fill="rgb(236,236,255)" stroke="rgb(147,112,219)" stroke-width="1.5"/><text x="215.62" y="409.01" text-anchor="middle" dominant-baseline="central" font-family="sans-serif" font-size="16" fill="rgb(51,51,51)">hexagon</text></svg>