<svg xmlns="http://www.w3.org/2000/svg" width="476" height="413" viewBox="0 0 476 413"><rect x="0" y="0" width="478" height="415" fill="rgb(255,255,255)"/><circle cx="184.00" cy="228.00" r="145.00" fill="none" stroke="black" stroke-width="2"/><path d="M184.00,228.00 L184.00,84.00 A144.00,144.00 0 0,1 268.64,344.50 Z" fill="rgb(129,134,214)" stroke="black" stroke-width="2"/><path d="M184.00,228.00 L268.64,344.50 A144.00,144.00 0 0,1 67.50,312.64 Z" fill="rgb(255,213,128)" stroke="black" stroke-width="2"/><path d="M184.00,228.00 L67.50,312.64 A144.00,144.00 0 0,1 67.50,143.36 Z" fill="rgb(110,198,167)" stroke="black" stroke-width="2"/><path d="M184.00,228.00 L67.50,143.36 A144.00,144.00 0 0,1 139.50,91.05 Z" fill="rgb(232,122,122)" stroke="black" stroke-width="2"/><path d="M184.00,228.00 L139.50,91.05 A144.00,144.00 0 0,1 184.00,84.00 Z" fill="rgb(120,175,220)" stroke="black" stroke-width="2"/><text x="184.00" y="22.00" text-anchor="middle" dominant-baseline="central" font-family="sans-serif" font-size="24" font-weight="bold" fill="rgb(51,51,51)">Languages</text><rect x="378.00" y="168.00" width="18" height="18" fill="rgb(129,134,214)" stroke="rgb(129,134,214)"/><text x="402.00" y="177.00" text-anchor="start" dominant-baseline="central" font-family="sans-serif" font-size="16" fill="rgb(51,51,51)">Rust</text><rect x="378.00" y="192.00" width="18" height="18" fill="rgb(255,213,128)" stroke="rgb(255,213,128)"/><text x="402.00" y="201.00" text-anchor="start" dominant-baseline="central" font-family="sans-serif" font-size="16" fill="rgb(51,51,51)">Go</text><rect x="378.00" y="216.00" width="18" height="18" fill="rgb(110,198,167)" stroke="rgb(110,198,167)"/><text x="402.00" y="225.00" text-anchor="start" dominant-baseline="central" font-family="sans-serif" font-size="16" fill="rgb(51,51,51)">Python</text><rect x="378.00" y="240.00" width="18" height="18" fill="rgb(232,122,122)" stroke="rgb(232,122,122)"/><text x="402.00" y="249.00" text-anchor="start" dominant-baseline="central" font-family="sans-serif" font-size="16" fill="rgb(51,51,51)">JS</text><rect x="378.00" y="264.00" width="18" height="18" fill="rgb(120,175,220)" stroke="rgb(120,175,220)"/><text x="402.00" y="273.00" text-anchor="start" dominant-baseline="central" font-family="sans-serif" font-size="16" fill="rgb(51,51,51)">C</text></svg>