<svg xmlns="http://www.w3.org/2000/svg" width="511" height="413" viewBox="0 0 511 413"><rect x="0" y="0" width="513" height="415" fill="rgb(255,255,255)"/><circle cx="184.00" cy="228.00" r="145.00" fill="none" stroke="black" stroke-width="2"/><path d="M184.00,228.00 L184.00,84.00 A144.00,144.00 0 1,1 45.53,188.49 Z" fill="rgb(129,134,214)" stroke="black" stroke-width="2"/><text x="249.05" y="314.21" text-anchor="middle" dominant-baseline="central" font-family="sans-serif" font-size="16" fill="rgb(0,0,0)">79%</text><path d="M184.00,228.00 L45.53,188.49 A144.00,144.00 0 0,1 156.25,86.70 Z" fill="rgb(255,213,128)" stroke="black" stroke-width="2"/><text x="110.91" y="148.49" text-anchor="middle" dominant-baseline="central" font-family="sans-serif" font-size="16" fill="rgb(0,0,0)">17%</text><path d="M184.00,228.00 L156.25,86.70 A144.00,144.00 0 0,1 184.00,84.00 Z" fill="rgb(110,198,167)" stroke="black" stroke-width="2"/><text x="173.54" y="120.51" text-anchor="middle" dominant-baseline="central" font-family="sans-serif" font-size="16" fill="rgb(0,0,0)">3%</text><text x="184.00" y="22.00" text-anchor="middle" dominant-baseline="central" font-family="sans-serif" font-size="24" font-weight="bold" fill="rgb(51,51,51)">Pet ownership</text><rect x="378.00" y="192.00" width="18" height="18" fill="rgb(129,134,214)" stroke="rgb(129,134,214)"/><text x="402.00" y="201.00" text-anchor="start" dominant-baseline="central" font-family="sans-serif" font-size="16" fill="rgb(51,51,51)">Dogs [386]</text><rect x="378.00" y="216.00" width="18" height="18" fill="rgb(255,213,128)" stroke="rgb(255,213,128)"/><text x="402.00" y="225.00" text-anchor="start" dominant-baseline="central" font-family="sans-serif" font-size="16" fill="rgb(51,51,51)">Cats [85]</text><rect x="378.00" y="240.00" width="18" height="18" fill="rgb(110,198,167)" stroke="rgb(110,198,167)"/><text x="402.00" y="249.00" text-anchor="start" dominant-baseline="central" font-family="sans-serif" font-size="16" fill="rgb(51,51,51)">Rats [15]</text></svg>