<svg xmlns="http://www.w3.org/2000/svg" width="596" height="554" viewBox="0 0 596 554"><rect x="0" y="0" width="599" height="557" fill="rgb(255,255,255)"/><text x="264.39" y="18.40" text-anchor="middle" font-family="sans-serif" font-size="17.60" font-weight="bold" fill="rgb(51,51,51)">Skills</text><polygon points="264.39,257.99 294.83,280.11 283.20,315.88 245.58,315.88 233.96,280.11" fill="none" stroke="rgb(51,51,51)" stroke-opacity="0.25" stroke-width="1"/><polygon points="264.39,225.99 325.26,270.22 302.01,341.77 226.78,341.77 203.53,270.22" fill="none" stroke="rgb(51,51,51)" stroke-opacity="0.25" stroke-width="1"/><polygon points="264.39,193.99 355.70,260.33 320.82,367.66 207.97,367.66 173.09,260.33" fill="none" stroke="rgb(51,51,51)" stroke-opacity="0.25" stroke-width="1"/><polygon points="264.39,161.99 386.13,250.44 339.63,393.55 189.16,393.55 142.66,250.44" fill="none" stroke="rgb(51,51,51)" stroke-opacity="0.25" stroke-width="1"/><polygon points="264.39,129.99 416.56,240.55 358.44,419.44 170.35,419.44 112.22,240.55" fill="none" stroke="rgb(51,51,51)" stroke-opacity="0.25" stroke-width="1"/><line x1="264.39" y1="289.99" x2="264.39" y2="129.99" stroke="rgb(51,51,51)" stroke-opacity="0.35" stroke-width="1"/><text x="264.39" y="101.19" text-anchor="middle" dominant-baseline="middle" font-family="sans-serif" font-size="13.60" fill="rgb(51,51,51)">Speed</text><line x1="264.39" y1="289.99" x2="416.56" y2="240.55" stroke="rgb(51,51,51)" stroke-opacity="0.35" stroke-width="1"/><text x="443.95" y="231.65" text-anchor="start" dominant-baseline="middle" font-family="sans-serif" font-size="13.60" fill="rgb(51,51,51)">Power</text><line x1="264.39" y1="289.99" x2="358.44" y2="419.44" stroke="rgb(51,51,51)" stroke-opacity="0.35" stroke-width="1"/><text x="375.37" y="442.74" text-anchor="start" dominant-baseline="middle" font-family="sans-serif" font-size="13.60" fill="rgb(51,51,51)">Range</text><line x1="264.39" y1="289.99" x2="170.35" y2="419.44" stroke="rgb(51,51,51)" stroke-opacity="0.35" stroke-width="1"/><text x="153.42" y="442.74" text-anchor="end" dominant-baseline="middle" font-family="sans-serif" font-size="13.60" fill="rgb(51,51,51)">Defense</text><line x1="264.39" y1="289.99" x2="112.22" y2="240.55" stroke="rgb(51,51,51)" stroke-opacity="0.35" stroke-width="1"/><text x="84.83" y="231.65" text-anchor="end" dominant-baseline="middle" font-family="sans-serif" font-size="13.60" fill="rgb(51,51,51)">Magic</text><polygon points="264.39,161.99 355.70,260.33 330.23,380.60 217.37,354.72 127.44,245.50" fill="rgb(129,134,214)" fill-opacity="0.2510" stroke="rgb(129,134,214)" stroke-width="2" stroke-linejoin="round"/><circle cx="264.39" cy="161.99" r="2.88" fill="rgb(129,134,214)"/><circle cx="355.70" cy="260.33" r="2.88" fill="rgb(129,134,214)"/><circle cx="330.23" cy="380.60" r="2.88" fill="rgb(129,134,214)"/><circle cx="217.37" cy="354.72" r="2.88" fill="rgb(129,134,214)"/><circle cx="127.44" cy="245.50" r="2.88" fill="rgb(129,134,214)"/><polygon points="264.39,209.99 401.35,245.50 302.01,341.77 189.16,393.55 218.74,275.16" fill="rgb(255,213,128)" fill-opacity="0.2510" stroke="rgb(255,213,128)" stroke-width="2" stroke-linejoin="round"/><circle cx="264.39" cy="209.99" r="2.88" fill="rgb(255,213,128)"/><circle cx="401.35" cy="245.50" r="2.88" fill="rgb(255,213,128)"/><circle cx="302.01" cy="341.77" r="2.88" fill="rgb(255,213,128)"/><circle cx="189.16" cy="393.55" r="2.88" fill="rgb(255,213,128)"/><circle cx="218.74" cy="275.16" r="2.88" fill="rgb(255,213,128)"/><rect x="538.39" y="30.08" width="14.40" height="14.40" fill="rgb(129,134,214)" fill-opacity="0.5" stroke="rgb(129,134,214)"/><text x="559.19" y="37.28" dominant-baseline="middle" font-family="sans-serif" font-size="13.60" fill="rgb(51,51,51)">hero</text><rect x="538.39" y="54.08" width="14.40" height="14.40" fill="rgb(255,213,128)" fill-opacity="0.5" stroke="rgb(255,213,128)"/><text x="559.19" y="61.28" dominant-baseline="middle" font-family="sans-serif" font-size="13.60" fill="rgb(51,51,51)">rival</text></svg>