<svg xmlns="http://www.w3.org/2000/svg" width="502.91" height="600.00" viewBox="0 0 502.91 600.00"><rect x="0" y="0" width="505" height="602" fill="rgb(255,255,255)"/><path d="M120.45,20.00 C186.45,20.00 174.45,20.00 240.45,20.00 L240.45,287.50 C174.45,287.50 186.45,287.50 120.45,287.50 Z" fill="rgb(129,134,214)" fill-opacity="0.4000"/><path d="M120.45,312.50 C186.45,312.50 174.45,287.50 240.45,287.50 L240.45,448.00 C174.45,448.00 186.45,473.00 120.45,473.00 Z" fill="rgb(110,198,167)" fill-opacity="0.4000"/><path d="M262.45,20.00 C328.45,20.00 316.45,20.00 382.45,20.00 L382.45,234.00 C316.45,234.00 328.45,234.00 262.45,234.00 Z" fill="rgb(255,213,128)" fill-opacity="0.4000"/><path d="M262.45,234.00 C328.45,234.00 316.45,259.00 382.45,259.00 L382.45,473.00 C316.45,473.00 328.45,448.00 262.45,448.00 Z" fill="rgb(255,213,128)" fill-opacity="0.4000"/><path d="M120.45,473.00 C186.45,473.00 174.45,473.00 240.45,473.00 L240.45,580.00 C174.45,580.00 186.45,580.00 120.45,580.00 Z" fill="rgb(110,198,167)" fill-opacity="0.4000"/><rect x="98.45" y="20.00" width="22.00" height="267.50" fill="rgb(129,134,214)" stroke="rgb(147,112,219)"/><text x="88.45" y="158.87" font-family="sans-serif" font-size="16.00" text-anchor="end" fill="rgb(51,51,51)">Coal</text><rect x="240.45" y="20.00" width="22.00" height="428.00" fill="rgb(255,213,128)" stroke="rgb(147,112,219)"/><text x="272.45" y="239.12" font-family="sans-serif" font-size="16.00" text-anchor="start" fill="rgb(51,51,51)">Electricity</text><rect x="98.45" y="312.50" width="22.00" height="267.50" fill="rgb(110,198,167)" stroke="rgb(147,112,219)"/><text x="88.45" y="451.37" font-family="sans-serif" font-size="16.00" text-anchor="end" fill="rgb(51,51,51)">Gas</text><rect x="382.45" y="20.00" width="22.00" height="214.00" fill="rgb(232,122,122)" stroke="rgb(147,112,219)"/><text x="414.45" y="132.12" font-family="sans-serif" font-size="16.00" text-anchor="start" fill="rgb(51,51,51)">Homes</text><rect x="382.45" y="259.00" width="22.00" height="214.00" fill="rgb(120,175,220)" stroke="rgb(147,112,219)"/><text x="414.45" y="371.12" font-family="sans-serif" font-size="16.00" text-anchor="start" fill="rgb(51,51,51)">Industry</text><rect x="240.45" y="473.00" width="22.00" height="107.00" fill="rgb(200,150,220)" stroke="rgb(147,112,219)"/><text x="272.45" y="531.62" font-family="sans-serif" font-size="16.00" text-anchor="start" fill="rgb(51,51,51)">Heating</text></svg>