<svg xmlns="http://www.w3.org/2000/svg" width="103" height="308" viewBox="0 0 103 308"><rect x="0" y="0" width="105" height="310" fill="rgb(255,255,255)"/><defs><marker id="state-arrow" markerWidth="9" markerHeight="8" refX="9" refY="4" orient="auto" markerUnits="userSpaceOnUse"><path d="M0,0 L9,4 L0,8 Z" fill="rgb(51,51,51)"/></marker></defs><path d="M50.46,18.00 C50.46,22.17 50.46,36.17 50.46,43.00 C50.46,49.83 50.46,56.33 50.46,59.00" fill="none" stroke="rgb(51,51,51)" stroke-width="1.5" marker-end="url(#state-arrow)"/><path d="M60.13,103.20 C63.58,109.47 80.08,129.58 80.80,140.80 C81.52,152.02 67.19,165.56 64.47,170.51" fill="none" stroke="rgb(51,51,51)" stroke-width="1.5" marker-end="url(#state-arrow)"/><text x="80.80" y="140.80" text-anchor="middle" dominant-baseline="central" font-family="sans-serif" font-size="16" fill="rgb(51,51,51)">start</text><path d="M40.79,178.40 C37.34,172.13 20.84,152.02 20.12,140.80 C19.40,129.58 33.73,116.04 36.45,111.09" fill="none" stroke="rgb(51,51,51)" stroke-width="1.5" marker-end="url(#state-arrow)"/><text x="20.12" y="140.80" text-anchor="middle" dominant-baseline="central" font-family="sans-serif" font-size="16" fill="rgb(51,51,51)">stop</text><path d="M50.46,213.60 C50.46,219.87 50.46,240.17 50.46,251.20 C50.46,262.23 50.46,275.03 50.46,279.80" fill="none" stroke="rgb(51,51,51)" stroke-width="1.5" marker-end="url(#state-arrow)"/><text x="50.46" y="251.20" text-anchor="middle" dominant-baseline="central" font-family="sans-serif" font-size="16" fill="rgb(51,51,51)">exit</text><circle cx="50.46" cy="9.00" r="9.00" fill="rgb(147,112,219)"/><rect x="23.56" y="68.00" width="53.80" height="35.20" rx="6" ry="6" fill="rgb(236,236,255)" stroke="rgb(147,112,219)" stroke-width="1.5"/><text x="50.46" y="85.60" text-anchor="middle" dominant-baseline="central" font-family="sans-serif" font-size="16" fill="rgb(51,51,51)">Idle</text><rect x="6.66" y="178.40" width="87.60" height="35.20" rx="6" ry="6" fill="rgb(236,236,255)" stroke="rgb(147,112,219)" stroke-width="1.5"/><text x="50.46" y="196.00" text-anchor="middle" dominant-baseline="central" font-family="sans-serif" font-size="16" fill="rgb(51,51,51)">Running</text><circle cx="50.46" cy="297.80" r="9.00" fill="none" stroke="rgb(147,112,219)" stroke-width="1.5"/><circle cx="50.46" cy="297.80" r="5.00" fill="rgb(147,112,219)"/></svg>