<svg xmlns="http://www.w3.org/2000/svg" width="737" height="243" viewBox="0 0 737 243"><rect x="0" y="0" width="739" height="245" fill="rgb(255,255,255)"/><rect x="24.00" y="51.20" width="336.00" height="167.80" rx="6" ry="6" fill="rgb(129,134,214)" fill-opacity="0.35"/><text x="192.00" y="60.80" text-anchor="middle" dominant-baseline="central" font-family="sans-serif" font-size="16" font-weight="bold" fill="rgb(51,51,51)">Early</text><rect x="376.00" y="51.20" width="336.00" height="167.80" rx="6" ry="6" fill="rgb(255,213,128)" fill-opacity="0.35"/><text x="544.00" y="60.80" text-anchor="middle" dominant-baseline="central" font-family="sans-serif" font-size="16" font-weight="bold" fill="rgb(51,51,51)">Growth</text><text x="368.50" y="33.60" text-anchor="middle" dominant-baseline="central" font-family="sans-serif" font-size="19.2" font-weight="bold" fill="rgb(51,51,51)">History of the web</text><line x1="24.00" y1="96.00" x2="712.00" y2="96.00" stroke="rgb(51,51,51)" stroke-width="1.5"/><rect x="24.00" y="78.40" width="160.00" height="35.20" rx="6" ry="6" fill="rgb(129,134,214)" stroke="rgb(147,112,219)" stroke-width="1.5"/><text x="104.00" y="96.00" text-anchor="middle" dominant-baseline="central" font-family="sans-serif" font-size="16" fill="rgb(51,51,51)">1990</text><rect x="24.00" y="131.60" width="160.00" height="54.40" rx="6" ry="6" fill="rgb(129,134,214)" stroke="rgb(147,112,219)" stroke-width="1.5"/><text x="104.00" y="149.20" text-anchor="middle" dominant-baseline="central" font-family="sans-serif" font-size="16" fill="rgb(51,51,51)">Tim invents the</text><text x="104.00" y="168.40" text-anchor="middle" dominant-baseline="central" font-family="sans-serif" font-size="16" fill="rgb(51,51,51)">web</text><rect x="200.00" y="78.40" width="160.00" height="35.20" rx="6" ry="6" fill="rgb(129,134,214)" stroke="rgb(147,112,219)" stroke-width="1.5"/><text x="280.00" y="96.00" text-anchor="middle" dominant-baseline="central" font-family="sans-serif" font-size="16" fill="rgb(51,51,51)">1993</text><rect x="200.00" y="131.60" width="160.00" height="35.20" rx="6" ry="6" fill="rgb(129,134,214)" stroke="rgb(147,112,219)" stroke-width="1.5"/><text x="280.00" y="149.20" text-anchor="middle" dominant-baseline="central" font-family="sans-serif" font-size="16" fill="rgb(51,51,51)">Mosaic browser</text><rect x="376.00" y="78.40" width="160.00" height="35.20" rx="6" ry="6" fill="rgb(255,213,128)" stroke="rgb(147,112,219)" stroke-width="1.5"/><text x="456.00" y="96.00" text-anchor="middle" dominant-baseline="central" font-family="sans-serif" font-size="16" fill="rgb(51,51,51)">1995</text><rect x="376.00" y="131.60" width="160.00" height="35.20" rx="6" ry="6" fill="rgb(255,213,128)" stroke="rgb(147,112,219)" stroke-width="1.5"/><text x="456.00" y="149.20" text-anchor="middle" dominant-baseline="central" font-family="sans-serif" font-size="16" fill="rgb(51,51,51)">JavaScript</text><rect x="376.00" y="174.80" width="160.00" height="35.20" rx="6" ry="6" fill="rgb(255,213,128)" stroke="rgb(147,112,219)" stroke-width="1.5"/><text x="456.00" y="192.40" text-anchor="middle" dominant-baseline="central" font-family="sans-serif" font-size="16" fill="rgb(51,51,51)">PHP</text><rect x="552.00" y="78.40" width="160.00" height="35.20" rx="6" ry="6" fill="rgb(255,213,128)" stroke="rgb(147,112,219)" stroke-width="1.5"/><text x="632.00" y="96.00" text-anchor="middle" dominant-baseline="central" font-family="sans-serif" font-size="16" fill="rgb(51,51,51)">2004</text><rect x="552.00" y="131.60" width="160.00" height="35.20" rx="6" ry="6" fill="rgb(255,213,128)" stroke="rgb(147,112,219)" stroke-width="1.5"/><text x="632.00" y="149.20" text-anchor="middle" dominant-baseline="central" font-family="sans-serif" font-size="16" fill="rgb(51,51,51)">Web 2.0</text></svg>