<svg xmlns="http://www.w3.org/2000/svg" width="65.664" height="93.48801" viewBox="0 0 65.664 93.48801"><path d="M352 -683L352 -643L197 -643L197 1183L352 1183L352 1223L107 1223L107 -683Z" transform="translate(0,59.704002) scale(0.048,-0.048)" fill="rgb(0,0,0)"/><path d="M251 325C239 405 232 437 210 475L195 475L53 464L53 435C53 435 74 437 88 437C149 437 154 388 161 343L220 -9C192 -52 112 -165 93 -165C71 -165 60 -112 22 -112C-1 -112 -17 -125 -17 -155C-17 -192 18 -220 60 -220C136 -220 197 -112 289 15C341 87 398 173 452 268C484 322 496 367 496 406C496 449 470 482 433 482C404 482 389 464 389 443C389 405 438 377 438 351C438 327 429 303 405 264L290 79L284 79L275 179Z" transform="translate(20.592001,59.128002) scale(0.048,-0.048)" fill="rgb(0,0,0)"/><path d="M322 -683L322 1223L77 1223L77 1183L232 1183L232 -643L77 -643L77 -683Z" transform="translate(45.072,59.704002) scale(0.048,-0.048)" fill="rgb(0,0,0)"/></svg>