<svg xmlns="http://www.w3.org/2000/svg" width="65.136" height="62.72" viewBox="0 0 65.136 62.72"><path d="M667 922L399 -93L395 -93L197 417L177 417L18 307L34 279L138 319L371 -265L413 -265L713 854L829 854L829 922Z" transform="translate(0,49) scale(0.048,-0.048)" fill="rgb(0,0,0)"/><rect x="38.112" y="4.7439995" width="27.024" height="3.264" fill="rgb(0,0,0)"/><path d="M464 160L435 160C412 100 399 79 346 79L207 79L137 76L137 81L269 206C375 313 432 382 432 471C432 576 353 644 240 644C143 644 75 588 44 491L68 481C105 556 149 579 214 579C291 579 339 531 339 456C339 351 289 288 190 186L38 34L38 0L432 0Z" transform="translate(38.112,43) scale(0.048,-0.048)" fill="rgb(0,0,0)"/></svg>