<svg xmlns="http://www.w3.org/2000/svg" width="124.8" height="88.6736" viewBox="0 0 124.8 88.6736"><path d="M39 164L42 -8L63 -8L84 15L86 15C112 4 142 -11 200 -11C290 -11 368 25 368 119C368 193 319 230 228 278C144 321 111 346 111 385C111 430 146 451 192 451C253 451 290 422 312 327L339 327L336 480L316 480L299 459L298 459C273 471 243 485 193 485C107 485 40 441 40 359C40 285 81 250 172 204C265 158 284 139 284 92C284 45 248 26 198 26C124 26 86 61 65 164Z" transform="translate(31.874405,87.304) scale(0.0336,-0.0336)" fill="rgb(0,0,0)"/><path d="M540 45L530 45C482 45 470 52 470 111L470 478L446 478L306 463L306 435C370 435 387 430 387 377L387 114C347 79 315 54 264 54C212 54 174 84 174 186L174 478L152 478L23 463L23 435C77 434 91 430 91 376L91 173C91 37 139 -10 222 -10C286 -10 333 20 386 72L391 72L391 -5L413 -5L540 18Z" transform="translate(45.146404,87.304) scale(0.0336,-0.0336)" fill="rgb(0,0,0)"/><path d="M185 357C214 384 258 421 310 421C356 421 390 399 390 314L390 116C390 46 384 29 313 29L313 0L550 0L550 29C478 29 473 47 473 116L473 359C506 387 547 421 588 421C635 421 674 399 674 308L674 116C674 55 671 29 603 29L603 0L829 0L829 29C760 29 757 53 757 116L757 320C757 441 706 485 628 485C575 485 524 456 469 402L465 402C445 450 411 485 354 485C286 485 240 448 186 401L182 401L182 482L158 482L33 453L33 424C33 424 45 426 60 426C88 426 102 417 102 381L102 101C102 41 95 29 32 29L32 0L260 0L260 29C198 29 185 41 185 97Z" transform="translate(64.2984,87.304) scale(0.0336,-0.0336)" fill="rgb(0,0,0)"/><path d="M315 298L312 298L300 349C286 403 267 447 243 475L228 475L89 459L89 429C89 429 104 432 120 432C186 433 203 406 230 322L258 231L186 126C147 70 129 69 125 69C108 69 84 82 62 82C38 82 23 60 23 40C23 15 38 -9 81 -9C141 -9 174 38 206 90L270 194L274 194L299 93C313 28 335 -10 381 -10C449 -10 491 58 520 102L499 118C472 82 453 62 427 62C396 62 376 99 348 191L327 259L388 356C405 384 419 398 442 398C455 398 478 388 494 388C521 388 540 411 540 435C540 463 528 479 490 479C431 479 391 430 364 382Z" transform="translate(0,27.784) scale(0.048,-0.048)" fill="rgb(0,0,0)"/><path d="M658 225L658 293L396 293L396 558L324 558L324 293L62 293L62 225L324 225L324 -40L396 -40L396 225Z" transform="translate(37.49867,27.784) scale(0.048,-0.048)" fill="rgb(0,0,0)"/><path d="M251 325C239 405 232 437 210 475L195 475L53 464L53 435C53 435 74 437 88 437C149 437 154 388 161 343L220 -9C192 -52 112 -165 93 -165C71 -165 60 -112 22 -112C-1 -112 -17 -125 -17 -155C-17 -192 18 -220 60 -220C136 -220 197 -112 289 15C341 87 398 173 452 268C484 322 496 367 496 406C496 449 470 482 433 482C404 482 389 464 389 443C389 405 438 377 438 351C438 327 429 303 405 264L290 79L284 79L275 179Z" transform="translate(82.725334,27.784) scale(0.048,-0.048)" fill="rgb(0,0,0)"/><path d="M1308 -300C1316 -255 1409 -192 1572 -192C1767 -192 1987 -235 2169 -235C2475 -235 2600 -150 2600 -53L2567 -53C2567 -110 2472 -162 2231 -162C2072 -162 1914 -122 1691 -122C1416 -122 1338 -169 1283 -231L1276 -231C1232 -169 1136 -122 882 -122C644 -122 576 -162 362 -162C165 -162 34 -110 34 -53L0 -53C0 -150 125 -235 423 -235C605 -235 816 -192 990 -192C1160 -192 1253 -255 1255 -300Z" transform="translate(0,40.744003) scale(0.048,-0.048)" fill="rgb(0,0,0)"/></svg>