<svg xmlns="http://www.w3.org/2000/svg" width="110.78401" height="81.968" viewBox="0 0 110.78401 81.968"><path d="M339 -563L339 -525L190 -525L190 1065L339 1065L339 1103L103 1103L103 -563Z" transform="translate(0,53.944) scale(0.048,-0.048)" fill="rgb(0,0,0)"/><path d="M426 0L426 28C334 28 297 46 297 95L297 639L268 639L74 584L74 551C105 561 156 567 176 567C201 567 209 553 209 518L209 95C209 45 174 28 80 28L80 0Z" transform="translate(19.632,32.128) scale(0.048,-0.048)" fill="rgb(0,0,0)"/><path d="M468 317C468 523 378 642 249 642C104 642 27 510 27 320C27 143 86 -11 247 -11C404 -11 468 146 468 317ZM371 311C371 119 326 25 247 25C167 25 123 121 123 315C123 513 167 608 246 608C328 608 371 514 371 311Z" transform="translate(67.392,32.128) scale(0.048,-0.048)" fill="rgb(0,0,0)"/><path d="M468 317C468 523 378 642 249 642C104 642 27 510 27 320C27 143 86 -11 247 -11C404 -11 468 146 468 317ZM371 311C371 119 326 25 247 25C167 25 123 121 123 315C123 513 167 608 246 608C328 608 371 514 371 311Z" transform="translate(19.632,80.128) scale(0.048,-0.048)" fill="rgb(0,0,0)"/><path d="M426 0L426 28C334 28 297 46 297 95L297 639L268 639L74 584L74 551C105 561 156 567 176 567C201 567 209 553 209 518L209 95C209 45 174 28 80 28L80 0Z" transform="translate(67.392,80.128) scale(0.048,-0.048)" fill="rgb(0,0,0)"/><path d="M306 -563L306 1103L70 1103L70 1065L219 1065L219 -525L70 -525L70 -563Z" transform="translate(91.15201,53.944) scale(0.048,-0.048)" fill="rgb(0,0,0)"/></svg>