<svg xmlns="http://www.w3.org/2000/svg" width="68.316" height="62.72" viewBox="0 0 68.316 62.72"><path d="M86 498C120 551 157 579 217 579C279 579 319 545 319 486C319 405 248 350 180 350L161 350L161 312L181 312C277 312 362 253 362 164C362 66 301 37 238 37C214 37 200 41 157 63C122 81 114 86 98 86C72 86 59 63 59 42C59 16 81 -13 171 -13C317 -13 444 57 444 194C444 283 377 336 297 361L297 364C360 404 405 441 405 510C405 586 346 644 244 644C162 644 100 598 63 511Z" transform="translate(3.12,33.736) scale(0.026400002,-0.026400002)" fill="rgb(0,0,0)"/><path d="M667 922L399 -93L395 -93L197 417L177 417L18 307L34 279L138 319L371 -265L413 -265L713 854L829 854L829 922Z" transform="translate(0.1079998,49) scale(0.048,-0.048)" fill="rgb(0,0,0)"/><rect x="38.22" y="4.7440014" width="30.096" height="3.264" fill="rgb(0,0,0)"/><path d="M315 298L312 298L300 349C286 403 267 447 243 475L228 475L89 459L89 429C89 429 104 432 120 432C186 433 203 406 230 322L258 231L186 126C147 70 129 69 125 69C108 69 84 82 62 82C38 82 23 60 23 40C23 15 38 -9 81 -9C141 -9 174 38 206 90L270 194L274 194L299 93C313 28 335 -10 381 -10C449 -10 491 58 520 102L499 118C472 82 453 62 427 62C396 62 376 99 348 191L327 259L388 356C405 384 419 398 442 398C455 398 478 388 494 388C521 388 540 411 540 435C540 463 528 479 490 479C431 479 391 430 364 382Z" transform="translate(38.22,35.08) scale(0.048,-0.048)" fill="rgb(0,0,0)"/></svg>