<svg xmlns="http://www.w3.org/2000/svg" width="51.503998" height="36.416" viewBox="0 0 51.503998 36.416"><path d="M502 472L449 472L413 426L409 426C388 456 358 479 305 479C174 479 49 341 49 159C49 43 100 -12 172 -12C229 -12 288 22 339 85L346 85C343 67 339 53 339 38C339 5 359 -10 395 -10C455 -10 497 33 539 97L519 112C506 95 477 60 445 60C429 60 425 68 425 81C425 96 430 118 430 118ZM389 344C389 313 378 240 358 181C329 96 285 54 218 54C168 54 138 77 138 169C138 303 202 441 302 441C358 441 389 397 389 344Z" transform="translate(0,34.84) scale(0.048,-0.048)" fill="rgb(0,0,0)"/><path d="M198 402L257 705L235 705L97 694L97 668C97 668 116 670 127 670C147 670 163 663 163 641C163 629 160 610 159 606L46 25C95 0 146 -12 204 -12C382 -12 483 140 483 304C483 424 421 479 342 479C289 479 246 450 203 402ZM184 316C205 363 249 423 313 423C358 423 395 390 395 300C395 148 338 30 219 30C177 30 148 54 135 66Z" transform="translate(26.64,34.84) scale(0.048,-0.048)" fill="rgb(0,0,0)"/></svg>