<svg xmlns="http://www.w3.org/2000/svg" width="99" height="314" viewBox="0 0 99 314"><rect x="0" y="0" width="101" height="316" fill="rgb(255,255,255)"/><path d="M48.68,62.40 C48.68,68.67 48.68,89.47 48.68,100.00 C48.68,110.53 48.68,121.33 48.68,125.60" fill="none" stroke="rgb(51,51,51)" stroke-width="1.5"/><polyline points="41.68,125.60 48.68,137.60 55.68,125.60" fill="none" stroke="rgb(51,51,51)" stroke-width="1.5"/><rect x="23.55" y="88.40" width="50.25" height="23.20" fill="rgb(255,255,255)"/><text x="48.68" y="100.00" text-anchor="middle" dominant-baseline="central" font-family="sans-serif" font-size="16" fill="rgb(51,51,51)">places</text><path d="M48.68,200.00 C48.68,204.17 48.68,218.67 48.68,225.00 C48.68,231.33 48.68,235.83 48.68,238.00" fill="none" stroke="rgb(51,51,51)" stroke-width="1.5"/><polyline points="41.68,238.00 48.68,250.00 55.68,238.00" fill="none" stroke="rgb(51,51,51)" stroke-width="1.5"/><rect x="0.00" y="0.00" width="97.35" height="62.40" fill="rgb(236,236,255)" stroke="rgb(147,112,219)" stroke-width="1.5"/><line x1="0.00" y1="27.20" x2="97.35" y2="27.20" stroke="rgb(147,112,219)" stroke-width="1.5"/><line x1="0.00" y1="44.80" x2="97.35" y2="44.80" stroke="rgb(147,112,219)" stroke-width="1.5"/><text x="48.68" y="13.60" text-anchor="middle" dominant-baseline="central" font-family="sans-serif" font-size="16" font-weight="bold" fill="rgb(51,51,51)">Customer</text><rect x="14.23" y="137.60" width="68.90" height="62.40" fill="rgb(236,236,255)" stroke="rgb(147,112,219)" stroke-width="1.5"/><line x1="14.23" y1="164.80" x2="83.12" y2="164.80" stroke="rgb(147,112,219)" stroke-width="1.5"/><line x1="14.23" y1="182.40" x2="83.12" y2="182.40" stroke="rgb(147,112,219)" stroke-width="1.5"/><text x="48.68" y="151.20" text-anchor="middle" dominant-baseline="central" font-family="sans-serif" font-size="16" font-weight="bold" fill="rgb(51,51,51)">Order</text><rect x="19.12" y="250.00" width="59.12" height="62.40" fill="rgb(236,236,255)" stroke="rgb(147,112,219)" stroke-width="1.5"/><line x1="19.12" y1="277.20" x2="78.23" y2="277.20" stroke="rgb(147,112,219)" stroke-width="1.5"/><line x1="19.12" y1="294.80" x2="78.23" y2="294.80" stroke="rgb(147,112,219)" stroke-width="1.5"/><text x="48.68" y="263.60" text-anchor="middle" dominant-baseline="central" font-family="sans-serif" font-size="16" font-weight="bold" fill="rgb(51,51,51)">Item</text></svg>