<svg xmlns="http://www.w3.org/2000/svg" width="451" height="147" viewBox="0 0 451 147"><rect x="0" y="0" width="453" height="149" fill="rgb(255,255,255)"/><path d="M47.27,35.20 C47.27,41.47 47.27,60.27 47.27,72.80 C47.27,85.33 47.27,104.13 47.27,110.40" fill="none" stroke="rgb(51,51,51)" stroke-width="1.5"/><line x1="52.27" y1="39.20" x2="42.27" y2="39.20" stroke="rgb(51,51,51)" stroke-width="1.5"/><line x1="52.27" y1="43.20" x2="42.27" y2="43.20" stroke="rgb(51,51,51)" stroke-width="1.5"/><line x1="42.27" y1="106.40" x2="52.27" y2="106.40" stroke="rgb(51,51,51)" stroke-width="1.5"/><line x1="42.27" y1="102.40" x2="52.27" y2="102.40" stroke="rgb(51,51,51)" stroke-width="1.5"/><rect x="-2.73" y="61.20" width="100.00" height="23.20" fill="rgb(255,255,255)"/><text x="47.27" y="72.80" text-anchor="middle" dominant-baseline="central" font-family="sans-serif" font-size="16" fill="rgb(51,51,51)">one_to_one</text><path d="M168.01,35.20 C168.01,41.47 168.01,60.27 168.01,72.80 C168.01,85.33 168.01,104.13 168.01,110.40" fill="none" stroke="rgb(51,51,51)" stroke-width="1.5"/><line x1="173.01" y1="39.20" x2="163.01" y2="39.20" stroke="rgb(51,51,51)" stroke-width="1.5"/><line x1="173.01" y1="43.20" x2="163.01" y2="43.20" stroke="rgb(51,51,51)" stroke-width="1.5"/><line x1="168.01" y1="98.40" x2="168.01" y2="108.40" stroke="rgb(51,51,51)" stroke-width="1.5"/><line x1="168.01" y1="98.40" x2="173.01" y2="108.40" stroke="rgb(51,51,51)" stroke-width="1.5"/><line x1="168.01" y1="98.40" x2="163.01" y2="108.40" stroke="rgb(51,51,51)" stroke-width="1.5"/><line x1="163.01" y1="96.40" x2="173.01" y2="96.40" stroke="rgb(51,51,51)" stroke-width="1.5"/><circle cx="168.01" cy="91.40" r="3.50" fill="none" stroke="rgb(51,51,51)" stroke-width="1.5"/><rect x="113.21" y="61.20" width="109.60" height="23.20" fill="rgb(255,255,255)"/><text x="168.01" y="72.80" text-anchor="middle" dominant-baseline="central" font-family="sans-serif" font-size="16" fill="rgb(51,51,51)">one_to_many</text><path d="M301.19,35.20 C301.19,41.47 301.19,60.27 301.19,72.80 C301.19,85.33 301.19,104.13 301.19,110.40" fill="none" stroke="rgb(51,51,51)" stroke-width="1.5"/><line x1="301.19" y1="47.20" x2="301.19" y2="37.20" stroke="rgb(51,51,51)" stroke-width="1.5"/><line x1="301.19" y1="47.20" x2="296.19" y2="37.20" stroke="rgb(51,51,51)" stroke-width="1.5"/><line x1="301.19" y1="47.20" x2="306.19" y2="37.20" stroke="rgb(51,51,51)" stroke-width="1.5"/><line x1="306.19" y1="49.20" x2="296.19" y2="49.20" stroke="rgb(51,51,51)" stroke-width="1.5"/><circle cx="301.19" cy="54.20" r="3.50" fill="none" stroke="rgb(51,51,51)" stroke-width="1.5"/><line x1="301.19" y1="98.40" x2="301.19" y2="108.40" stroke="rgb(51,51,51)" stroke-width="1.5"/><line x1="301.19" y1="98.40" x2="306.19" y2="108.40" stroke="rgb(51,51,51)" stroke-width="1.5"/><line x1="301.19" y1="98.40" x2="296.19" y2="108.40" stroke="rgb(51,51,51)" stroke-width="1.5"/><line x1="296.19" y1="96.40" x2="306.19" y2="96.40" stroke="rgb(51,51,51)" stroke-width="1.5"/><circle cx="301.19" cy="91.40" r="3.50" fill="none" stroke="rgb(51,51,51)" stroke-width="1.5"/><rect x="241.59" y="61.20" width="119.20" height="23.20" fill="rgb(255,255,255)"/><text x="301.19" y="72.80" text-anchor="middle" dominant-baseline="central" font-family="sans-serif" font-size="16" fill="rgb(51,51,51)">many_to_many</text><path d="M415.23,35.20 C415.23,41.47 415.23,60.27 415.23,72.80 C415.23,85.33 415.23,104.13 415.23,110.40" fill="none" stroke="rgb(51,51,51)" stroke-width="1.5"/><line x1="415.23" y1="47.20" x2="415.23" y2="37.20" stroke="rgb(51,51,51)" stroke-width="1.5"/><line x1="415.23" y1="47.20" x2="410.23" y2="37.20" stroke="rgb(51,51,51)" stroke-width="1.5"/><line x1="415.23" y1="47.20" x2="420.23" y2="37.20" stroke="rgb(51,51,51)" stroke-width="1.5"/><line x1="420.23" y1="49.20" x2="410.23" y2="49.20" stroke="rgb(51,51,51)" stroke-width="1.5"/><line x1="415.23" y1="98.40" x2="415.23" y2="108.40" stroke="rgb(51,51,51)" stroke-width="1.5"/><line x1="415.23" y1="98.40" x2="420.23" y2="108.40" stroke="rgb(51,51,51)" stroke-width="1.5"/><line x1="415.23" y1="98.40" x2="410.23" y2="108.40" stroke="rgb(51,51,51)" stroke-width="1.5"/><line x1="410.23" y1="96.40" x2="420.23" y2="96.40" stroke="rgb(51,51,51)" stroke-width="1.5"/><rect x="374.83" y="61.20" width="80.80" height="23.20" fill="rgb(255,255,255)"/><text x="415.23" y="72.80" text-anchor="middle" dominant-baseline="central" font-family="sans-serif" font-size="16" fill="rgb(51,51,51)">required</text><rect x="27.93" y="0.00" width="38.67" height="35.20" fill="rgb(236,236,255)" stroke="rgb(147,112,219)" stroke-width="1.5"/><text x="47.27" y="17.60" text-anchor="middle" dominant-baseline="central" font-family="sans-serif" font-size="16" fill="rgb(51,51,51)">A</text><rect x="27.93" y="110.40" width="38.67" height="35.20" fill="rgb(236,236,255)" stroke="rgb(147,112,219)" stroke-width="1.5"/><text x="47.27" y="128.00" text-anchor="middle" dominant-baseline="central" font-family="sans-serif" font-size="16" fill="rgb(51,51,51)">B</text><rect x="148.23" y="0.00" width="39.55" height="35.20" fill="rgb(236,236,255)" stroke="rgb(147,112,219)" stroke-width="1.5"/><text x="168.01" y="17.60" text-anchor="middle" dominant-baseline="central" font-family="sans-serif" font-size="16" fill="rgb(51,51,51)">C</text><rect x="148.23" y="110.40" width="39.55" height="35.20" fill="rgb(236,236,255)" stroke="rgb(147,112,219)" stroke-width="1.5"/><text x="168.01" y="128.00" text-anchor="middle" dominant-baseline="central" font-family="sans-serif" font-size="16" fill="rgb(51,51,51)">D</text><rect x="281.85" y="0.00" width="38.67" height="35.20" fill="rgb(236,236,255)" stroke="rgb(147,112,219)" stroke-width="1.5"/><text x="301.19" y="17.60" text-anchor="middle" dominant-baseline="central" font-family="sans-serif" font-size="16" fill="rgb(51,51,51)">E</text><rect x="282.30" y="110.40" width="37.77" height="35.20" fill="rgb(236,236,255)" stroke="rgb(147,112,219)" stroke-width="1.5"/><text x="301.19" y="128.00" text-anchor="middle" dominant-baseline="central" font-family="sans-serif" font-size="16" fill="rgb(51,51,51)">F</text><rect x="395.01" y="0.00" width="40.45" height="35.20" fill="rgb(236,236,255)" stroke="rgb(147,112,219)" stroke-width="1.5"/><text x="415.23" y="17.60" text-anchor="middle" dominant-baseline="central" font-family="sans-serif" font-size="16" fill="rgb(51,51,51)">G</text><rect x="395.46" y="110.40" width="39.55" height="35.20" fill="rgb(236,236,255)" stroke="rgb(147,112,219)" stroke-width="1.5"/><text x="415.23" y="128.00" text-anchor="middle" dominant-baseline="central" font-family="sans-serif" font-size="16" fill="rgb(51,51,51)">H</text></svg>