<svg xmlns="http://www.w3.org/2000/svg" width="60" height="478" viewBox="0 0 60 478"><rect x="0" y="0" width="61" height="479" fill="rgb(255,255,255)"/><defs><marker id="arrow" markerWidth="9" markerHeight="8" refX="9" refY="4" orient="auto" markerUnits="userSpaceOnUse"><path d="M0,0 L9,4 L0,8 Z" fill="rgb(51,51,51)"/></marker><marker id="arrow-start" markerWidth="9" markerHeight="8" refX="0" refY="4" orient="auto" markerUnits="userSpaceOnUse"><path d="M9,0 L0,4 L9,8 Z" fill="rgb(51,51,51)"/></marker></defs><path d="M29.01,35.20 C29.01,41.47 29.01,61.77 29.01,72.80 C29.01,83.83 29.01,96.63 29.01,101.40" fill="none" stroke="rgb(51,51,51)" stroke-width="1.5" marker-end="url(#arrow)"/><path d="M29.01,145.60 C29.01,151.87 29.01,170.67 29.01,183.20 C29.01,195.73 29.01,214.53 29.01,220.80" fill="none" stroke="rgb(51,51,51)" stroke-width="1.5"/><path d="M29.01,256.00 C29.01,262.27 29.01,282.57 29.01,293.60 C29.01,304.63 29.01,317.43 29.01,322.20" fill="none" stroke="rgb(51,51,51)" stroke-width="1.5" stroke-dasharray="4 3" marker-end="url(#arrow)"/><path d="M29.01,366.40 C29.01,372.67 29.01,392.97 29.01,404.00 C29.01,415.03 29.01,427.83 29.01,432.60" fill="none" stroke="rgb(51,51,51)" stroke-width="3" marker-end="url(#arrow)"/><rect x="17.41" y="61.20" width="23.20" height="23.20" fill="rgb(255,255,255)"/><text x="29.01" y="72.80" text-anchor="middle" dominant-baseline="central" font-family="sans-serif" font-size="16" fill="rgb(51,51,51)">go</text><rect x="3.01" y="171.60" width="52.00" height="23.20" fill="rgb(255,255,255)"/><text x="29.01" y="183.20" text-anchor="middle" dominant-baseline="central" font-family="sans-serif" font-size="16" fill="rgb(51,51,51)">plain</text><rect x="3.01" y="282.00" width="52.00" height="23.20" fill="rgb(255,255,255)"/><text x="29.01" y="293.60" text-anchor="middle" dominant-baseline="central" font-family="sans-serif" font-size="16" fill="rgb(51,51,51)">maybe</text><rect x="3.01" y="392.40" width="52.00" height="23.20" fill="rgb(255,255,255)"/><text x="29.01" y="404.00" text-anchor="middle" dominant-baseline="central" font-family="sans-serif" font-size="16" fill="rgb(51,51,51)">thick</text><rect x="9.68" y="0.00" width="38.67" height="35.20" fill="rgb(236,236,255)" stroke="rgb(147,112,219)" stroke-width="1.5"/><text x="29.01" y="17.60" text-anchor="middle" dominant-baseline="central" font-family="sans-serif" font-size="16" fill="rgb(51,51,51)">A</text><rect x="9.68" y="110.40" width="38.67" height="35.20" fill="rgb(236,236,255)" stroke="rgb(147,112,219)" stroke-width="1.5"/><text x="29.01" y="128.00" text-anchor="middle" dominant-baseline="central" font-family="sans-serif" font-size="16" fill="rgb(51,51,51)">B</text><rect x="9.23" y="220.80" width="39.55" height="35.20" fill="rgb(236,236,255)" stroke="rgb(147,112,219)" stroke-width="1.5"/><text x="29.01" y="238.40" text-anchor="middle" dominant-baseline="central" font-family="sans-serif" font-size="16" fill="rgb(51,51,51)">C</text><rect x="9.23" y="331.20" width="39.55" height="35.20" fill="rgb(236,236,255)" stroke="rgb(147,112,219)" stroke-width="1.5"/><text x="29.01" y="348.80" text-anchor="middle" dominant-baseline="central" font-family="sans-serif" font-size="16" fill="rgb(51,51,51)">D</text><rect x="9.68" y="441.60" width="38.67" height="35.20" fill="rgb(236,236,255)" stroke="rgb(147,112,219)" stroke-width="1.5"/><text x="29.01" y="459.20" text-anchor="middle" dominant-baseline="central" font-family="sans-serif" font-size="16" fill="rgb(51,51,51)">E</text></svg>