<svg xmlns="http://www.w3.org/2000/svg" width="934" height="160" viewBox="0 0 934 160"><rect x="0" y="0" width="935" height="161" fill="rgb(255,255,255)"/><defs><marker id="arrow" markerWidth="9" markerHeight="8" refX="9" refY="4" orient="auto" markerUnits="userSpaceOnUse"><path d="M0,0 L9,4 L0,8 Z" fill="rgb(51,51,51)"/></marker><marker id="arrow-start" markerWidth="9" markerHeight="8" refX="0" refY="4" orient="auto" markerUnits="userSpaceOnUse"><path d="M9,0 L0,4 L9,8 Z" fill="rgb(51,51,51)"/></marker></defs><path d="M449.52,20.53 C380.86,27.14 106.23,47.76 37.57,60.20 C-31.08,72.64 37.57,89.36 37.57,95.19" fill="none" stroke="rgb(51,51,51)" stroke-width="1.5" marker-end="url(#arrow)"/><path d="M449.52,22.64 C411.66,28.90 260.24,49.71 222.38,60.20 C184.52,70.69 222.38,81.36 222.38,85.59" fill="none" stroke="rgb(51,51,51)" stroke-width="1.5" marker-end="url(#arrow)"/><path d="M449.52,35.18 C442.30,39.35 413.42,53.36 406.20,60.20 C398.98,67.04 406.20,73.53 406.20,76.20" fill="none" stroke="rgb(51,51,51)" stroke-width="1.5" marker-end="url(#arrow)"/><path d="M510.41,35.18 C517.63,39.35 546.51,50.20 553.73,60.20 C560.95,70.20 553.73,89.36 553.73,95.19" fill="none" stroke="rgb(51,51,51)" stroke-width="1.5" marker-end="url(#arrow)"/><path d="M510.41,22.89 C546.24,29.10 689.55,48.15 725.38,60.20 C761.20,72.25 725.38,89.36 725.38,95.19" fill="none" stroke="rgb(51,51,51)" stroke-width="1.5" marker-end="url(#arrow)"/><path d="M510.41,20.81 C572.73,27.37 822.00,48.64 884.32,60.20 C946.63,71.76 884.32,85.19 884.32,90.19" fill="none" stroke="rgb(51,51,51)" stroke-width="1.5" marker-end="url(#arrow)"/><rect x="449.52" y="0.00" width="60.90" height="35.20" fill="rgb(236,236,255)" stroke="rgb(147,112,219)" stroke-width="1.5"/><text x="479.97" y="17.60" text-anchor="middle" dominant-baseline="central" font-family="sans-serif" font-size="16" fill="rgb(51,51,51)">Rect</text><rect x="0.00" y="104.19" width="75.15" height="35.20" rx="6" ry="6" fill="rgb(236,236,255)" stroke="rgb(147,112,219)" stroke-width="1.5"/><text x="37.57" y="121.79" text-anchor="middle" dominant-baseline="central" font-family="sans-serif" font-size="16" fill="rgb(51,51,51)">Round</text><polygon points="222.38,94.59 319.61,121.79 222.38,148.99 125.15,121.79" fill="rgb(236,236,255)" stroke="rgb(147,112,219)" stroke-width="1.5"/><text x="222.38" y="121.79" text-anchor="middle" dominant-baseline="central" font-family="sans-serif" font-size="16" fill="rgb(51,51,51)">Diamond</text><ellipse cx="406.20" cy="121.79" rx="36.59" ry="36.59" fill="rgb(236,236,255)" stroke="rgb(147,112,219)" stroke-width="1.5"/><text x="406.20" y="121.79" text-anchor="middle" dominant-baseline="central" font-family="sans-serif" font-size="16" fill="rgb(51,51,51)">Circle</text><rect x="492.78" y="104.19" width="121.90" height="35.20" rx="17.60" ry="17.60" fill="rgb(236,236,255)" stroke="rgb(147,112,219)" stroke-width="1.5"/><text x="553.73" y="121.79" text-anchor="middle" dominant-baseline="central" font-family="sans-serif" font-size="16" fill="rgb(51,51,51)">Stadium</text><rect x="664.68" y="104.19" width="121.39" height="35.20" fill="rgb(236,236,255)" stroke="rgb(147,112,219)" stroke-width="1.5"/><line x1="672.68" y1="104.19" x2="672.68" y2="139.39" fill="rgb(236,236,255)" stroke="rgb(147,112,219)" stroke-width="1.5"/><line x1="778.07" y1="104.19" x2="778.07" y2="139.39" fill="rgb(236,236,255)" stroke="rgb(147,112,219)" stroke-width="1.5"/><text x="725.38" y="121.79" text-anchor="middle" dominant-baseline="central" font-family="sans-serif" font-size="16" fill="rgb(51,51,51)">Subroutine</text><path d="M836.07,107.19 L836.07,136.39 A48.25,8.00 0 0 0 932.56,136.39 L932.56,107.19 A48.25,8.00 0 0 1 836.07,107.19 M836.07,107.19 A48.25,8.00 0 0 0 932.56,107.19 A48.25,8.00 0 0 0 836.07,107.19 Z" fill="rgb(236,236,255)" stroke="rgb(147,112,219)" stroke-width="1.5"/><text x="884.32" y="121.79" text-anchor="middle" dominant-baseline="central" font-family="sans-serif" font-size="16" fill="rgb(51,51,51)">Database</text></svg>