<svg xmlns="http://www.w3.org/2000/svg" width="203" height="207" viewBox="0 0 203 207"><rect x="0" y="0" width="204" height="208" fill="rgb(255,255,255)"/><defs><marker id="arrow" markerWidth="9" markerHeight="8" refX="9" refY="4" orient="auto" markerUnits="userSpaceOnUse"><path d="M0,0 L9,4 L0,8 Z" fill="rgb(51,51,51)"/></marker><marker id="arrow-start" markerWidth="9" markerHeight="8" refX="0" refY="4" orient="auto" markerUnits="userSpaceOnUse"><path d="M9,0 L0,4 L9,8 Z" fill="rgb(51,51,51)"/></marker></defs><path d="M66.21,35.20 C60.54,39.37 37.89,53.37 32.23,60.20 C26.56,67.03 32.23,73.53 32.23,76.20" fill="none" stroke="rgb(51,51,51)" stroke-width="1.5" marker-end="url(#arrow)"/><path d="M114.05,35.20 C119.71,39.37 142.36,53.37 148.03,60.20 C153.69,67.03 148.03,73.53 148.03,76.20" fill="none" stroke="rgb(51,51,51)" stroke-width="1.5" marker-end="url(#arrow)"/><path d="M148.03,120.40 C148.03,124.57 148.03,138.57 148.03,145.40 C148.03,152.23 148.03,158.73 148.03,161.40" fill="none" stroke="rgb(51,51,51)" stroke-width="1.5" marker-end="url(#arrow)"/><rect x="36.99" y="0.00" width="106.27" height="35.20" fill="rgb(236,236,255)" stroke="rgb(147,112,219)" stroke-width="1.5"/><text x="90.13" y="17.60" text-anchor="middle" dominant-baseline="central" font-family="sans-serif" font-size="16" fill="rgb(51,51,51)">Homepage</text><rect x="0.00" y="85.20" width="64.45" height="35.20" fill="rgb(236,236,255)" stroke="rgb(147,112,219)" stroke-width="1.5"/><text x="32.23" y="102.80" text-anchor="middle" dominant-baseline="central" font-family="sans-serif" font-size="16" fill="rgb(51,51,51)">Docs</text><rect x="114.45" y="85.20" width="67.15" height="35.20" fill="rgb(236,236,255)" stroke="rgb(147,112,219)" stroke-width="1.5"/><text x="148.03" y="102.80" text-anchor="middle" dominant-baseline="central" font-family="sans-serif" font-size="16" fill="rgb(51,51,51)">Login</text><rect x="94.89" y="170.40" width="106.27" height="35.20" fill="rgb(236,236,255)" stroke="rgb(147,112,219)" stroke-width="1.5"/><text x="148.03" y="188.00" text-anchor="middle" dominant-baseline="central" font-family="sans-serif" font-size="16" fill="rgb(51,51,51)">Dashboard</text></svg>