<svg xmlns="http://www.w3.org/2000/svg" width="328" height="289" viewBox="0 0 328 289"><rect x="0" y="0" width="330" height="291" fill="rgb(255,255,255)"/><text x="16.00" y="25.60" text-anchor="start" dominant-baseline="central" font-family="sans-serif" font-size="16" font-weight="bold" fill="rgb(51,51,51)">expr</text><circle cx="16.00" cy="56.80" r="5.12" fill="rgb(51,51,51)"/><line x1="16.00" y1="56.80" x2="38.40" y2="56.80" fill="none" stroke="rgb(51,51,51)" stroke-width="1.5"/><rect x="38.40" y="43.20" width="54.40" height="27.20" rx="4.00" ry="4.00" fill="rgb(236,236,255)" stroke="rgb(147,112,219)" stroke-width="1.5"/><text x="65.60" y="56.80" text-anchor="middle" dominant-baseline="central" font-family="sans-serif" font-size="16" fill="rgb(51,51,51)">term</text><line x1="92.80" y1="56.80" x2="107.20" y2="56.80" fill="none" stroke="rgb(51,51,51)" stroke-width="1.5"/><line x1="107.20" y1="56.80" x2="133.60" y2="56.80" fill="none" stroke="rgb(51,51,51)" stroke-width="1.5"/><rect x="133.60" y="43.20" width="58.94" height="27.20" rx="13.60" ry="13.60" fill="rgb(236,236,255)" stroke="rgb(147,112,219)" stroke-width="1.5"/><text x="163.07" y="56.80" text-anchor="middle" dominant-baseline="central" font-family="sans-serif" font-size="16" fill="rgb(51,51,51)">+</text><line x1="192.54" y1="56.80" x2="206.94" y2="56.80" fill="none" stroke="rgb(51,51,51)" stroke-width="1.5"/><rect x="206.94" y="43.20" width="54.40" height="27.20" rx="4.00" ry="4.00" fill="rgb(236,236,255)" stroke="rgb(147,112,219)" stroke-width="1.5"/><text x="234.14" y="56.80" text-anchor="middle" dominant-baseline="central" font-family="sans-serif" font-size="16" fill="rgb(51,51,51)">term</text><line x1="261.34" y1="56.80" x2="287.74" y2="56.80" fill="none" stroke="rgb(51,51,51)" stroke-width="1.5"/><path d="M 261.34 56.80 A 8.80 8.80 0 0 1 270.14 65.60 L 270.14 79.20 A 8.80 8.80 0 0 1 261.34 88.00" fill="none" stroke="rgb(51,51,51)" stroke-width="1.5"/><line x1="133.60" y1="88.00" x2="261.34" y2="88.00" fill="none" stroke="rgb(51,51,51)" stroke-width="1.5"/><path d="M 133.60 88.00 A 8.80 8.80 0 0 1 124.80 79.20 L 124.80 65.60 A 8.80 8.80 0 0 1 133.60 56.80" fill="none" stroke="rgb(51,51,51)" stroke-width="1.5"/><line x1="287.74" y1="56.80" x2="310.14" y2="56.80" fill="none" stroke="rgb(51,51,51)" stroke-width="1.5"/><circle cx="310.14" cy="56.80" r="5.12" fill="rgb(51,51,51)"/><text x="16.00" y="136.80" text-anchor="start" dominant-baseline="central" font-family="sans-serif" font-size="16" font-weight="bold" fill="rgb(51,51,51)">term</text><circle cx="16.00" cy="168.00" r="5.12" fill="rgb(51,51,51)"/><line x1="16.00" y1="168.00" x2="38.40" y2="168.00" fill="none" stroke="rgb(51,51,51)" stroke-width="1.5"/><line x1="38.40" y1="168.00" x2="47.20" y2="168.00" fill="none" stroke="rgb(51,51,51)" stroke-width="1.5"/><line x1="140.90" y1="168.00" x2="149.70" y2="168.00" fill="none" stroke="rgb(51,51,51)" stroke-width="1.5"/><line x1="47.20" y1="168.00" x2="64.80" y2="168.00" fill="none" stroke="rgb(51,51,51)" stroke-width="1.5"/><rect x="64.80" y="154.40" width="58.50" height="27.20" rx="13.60" ry="13.60" fill="rgb(236,236,255)" stroke="rgb(147,112,219)" stroke-width="1.5"/><text x="94.05" y="168.00" text-anchor="middle" dominant-baseline="central" font-family="sans-serif" font-size="16" fill="rgb(51,51,51)">a</text><line x1="123.30" y1="168.00" x2="140.90" y2="168.00" fill="none" stroke="rgb(51,51,51)" stroke-width="1.5"/><path d="M 47.20 168.00 A 8.80 8.80 0 0 1 56.00 176.80 L 56.00 204.00 A 8.80 8.80 0 0 0 64.80 212.80" fill="none" stroke="rgb(51,51,51)" stroke-width="1.5"/><rect x="64.80" y="199.20" width="58.50" height="27.20" rx="13.60" ry="13.60" fill="rgb(236,236,255)" stroke="rgb(147,112,219)" stroke-width="1.5"/><text x="94.05" y="212.80" text-anchor="middle" dominant-baseline="central" font-family="sans-serif" font-size="16" fill="rgb(51,51,51)">b</text><line x1="123.30" y1="212.80" x2="132.10" y2="212.80" fill="none" stroke="rgb(51,51,51)" stroke-width="1.5"/><path d="M 132.10 212.80 A 8.80 8.80 0 0 0 140.90 204.00 L 140.90 176.80 A 8.80 8.80 0 0 1 140.90 168.00" fill="none" stroke="rgb(51,51,51)" stroke-width="1.5"/><path d="M 47.20 168.00 A 8.80 8.80 0 0 1 56.00 176.80 L 56.00 248.80 A 8.80 8.80 0 0 0 64.80 257.60" fill="none" stroke="rgb(51,51,51)" stroke-width="1.5"/><line x1="64.80" y1="257.60" x2="67.29" y2="257.60" fill="none" stroke="rgb(51,51,51)" stroke-width="1.5"/><rect x="67.29" y="244.00" width="53.53" height="27.20" rx="4.00" ry="4.00" fill="rgb(236,236,255)" stroke="rgb(147,112,219)" stroke-width="1.5"/><text x="94.05" y="257.60" text-anchor="middle" dominant-baseline="central" font-family="sans-serif" font-size="16" fill="rgb(51,51,51)">expr</text><line x1="120.81" y1="257.60" x2="132.10" y2="257.60" fill="none" stroke="rgb(51,51,51)" stroke-width="1.5"/><path d="M 132.10 257.60 A 8.80 8.80 0 0 0 140.90 248.80 L 140.90 176.80 A 8.80 8.80 0 0 1 140.90 168.00" fill="none" stroke="rgb(51,51,51)" stroke-width="1.5"/><line x1="149.70" y1="168.00" x2="172.10" y2="168.00" fill="none" stroke="rgb(51,51,51)" stroke-width="1.5"/><circle cx="172.10" cy="168.00" r="5.12" fill="rgb(51,51,51)"/></svg>