<svg xmlns="http://www.w3.org/2000/svg" width="234" height="295" viewBox="0 0 234 295"><rect x="0" y="0" width="236" height="297" fill="rgb(255,255,255)"/><defs><marker id="seq-arrow" markerWidth="9" markerHeight="8" refX="9" refY="4" orient="auto" markerUnits="userSpaceOnUse"><path d="M0,0 L9,4 L0,8 Z" fill="rgb(51,51,51)"/></marker></defs><line x1="36.00" y1="51.20" x2="36.00" y2="277.20" stroke="rgb(51,51,51)" stroke-width="1.5" stroke-dasharray="3 3"/><line x1="116.00" y1="51.20" x2="116.00" y2="277.20" stroke="rgb(51,51,51)" stroke-width="1.5" stroke-dasharray="3 3"/><rect x="16.00" y="16.00" width="40.00" height="35.20" rx="3" ry="3" fill="rgb(236,236,255)" stroke="rgb(147,112,219)" stroke-width="1.5"/><text x="36.00" y="33.60" text-anchor="middle" dominant-baseline="central" font-family="sans-serif" font-size="16" fill="rgb(51,51,51)">A</text><rect x="96.00" y="16.00" width="40.00" height="35.20" rx="3" ry="3" fill="rgb(236,236,255)" stroke="rgb(147,112,219)" stroke-width="1.5"/><text x="116.00" y="33.60" text-anchor="middle" dominant-baseline="central" font-family="sans-serif" font-size="16" fill="rgb(51,51,51)">B</text><rect x="-54.93" y="62.20" width="76.93" height="38.00" rx="2" ry="2" fill="rgb(255,255,221)" stroke="rgb(147,112,219)" stroke-width="1.5"/><text x="-16.46" y="81.20" text-anchor="middle" dominant-baseline="central" font-family="sans-serif" font-size="16" fill="rgb(51,51,51)">left note</text><rect x="130.00" y="112.20" width="86.71" height="38.00" rx="2" ry="2" fill="rgb(255,255,221)" stroke="rgb(147,112,219)" stroke-width="1.5"/><text x="173.36" y="131.20" text-anchor="middle" dominant-baseline="central" font-family="sans-serif" font-size="16" fill="rgb(51,51,51)">right note</text><rect x="16.00" y="162.20" width="120.00" height="38.00" rx="2" ry="2" fill="rgb(255,255,221)" stroke="rgb(147,112,219)" stroke-width="1.5"/><text x="76.00" y="181.20" text-anchor="middle" dominant-baseline="central" font-family="sans-serif" font-size="16" fill="rgb(51,51,51)">over both</text><line x1="36.00" y1="231.20" x2="107.00" y2="231.20" stroke="rgb(51,51,51)" stroke-width="1.5" marker-end="url(#seq-arrow)"/><text x="76.00" y="221.80" text-anchor="middle" dominant-baseline="central" font-family="sans-serif" font-size="16" fill="rgb(51,51,51)">msg</text></svg>