<svg xmlns="http://www.w3.org/2000/svg" width="189" height="299" viewBox="0 0 189 299"><rect x="0" y="0" width="191" height="301" fill="rgb(255,255,255)"/><defs><marker id="seq-arrow" markerWidth="9" markerHeight="8" refX="9" refY="4" orient="auto" markerUnits="userSpaceOnUse"><path d="M0,0 L9,4 L0,8 Z" fill="rgb(51,51,51)"/></marker></defs><rect x="6.00" y="81.20" width="140.00" height="191.00" fill="none" stroke="rgb(147,112,219)" stroke-width="1.5"/><path d="M6.00,81.20 L96.80,81.20 L96.80,89.20 L88.80,97.20 L6.00,97.20 Z" fill="rgb(236,236,255)" stroke="rgb(147,112,219)" stroke-width="1.5"/><text x="47.40" y="89.20" text-anchor="middle" dominant-baseline="central" font-family="sans-serif" font-size="16" fill="rgb(51,51,51)">critical</text><text x="136.40" y="89.20" text-anchor="middle" dominant-baseline="central" font-family="sans-serif" font-size="16" fill="rgb(51,51,51)">connect</text><line x1="6.00" y1="162.40" x2="146.00" y2="162.40" stroke="rgb(147,112,219)" stroke-width="1.5" stroke-dasharray="3 3"/><text x="76.00" y="173.60" text-anchor="middle" dominant-baseline="central" font-family="sans-serif" font-size="16" fill="rgb(51,51,51)">timeout</text><line x1="36.00" y1="51.20" x2="36.00" y2="281.40" stroke="rgb(51,51,51)" stroke-width="1.5" stroke-dasharray="3 3"/><line x1="116.00" y1="51.20" x2="116.00" y2="281.40" stroke="rgb(51,51,51)" stroke-width="1.5" stroke-dasharray="3 3"/><rect x="16.00" y="16.00" width="40.00" height="35.20" rx="3" ry="3" fill="rgb(236,236,255)" stroke="rgb(147,112,219)" stroke-width="1.5"/><text x="36.00" y="33.60" text-anchor="middle" dominant-baseline="central" font-family="sans-serif" font-size="16" fill="rgb(51,51,51)">A</text><rect x="96.00" y="16.00" width="40.00" height="35.20" rx="3" ry="3" fill="rgb(236,236,255)" stroke="rgb(147,112,219)" stroke-width="1.5"/><text x="116.00" y="33.60" text-anchor="middle" dominant-baseline="central" font-family="sans-serif" font-size="16" fill="rgb(51,51,51)">B</text><line x1="36.00" y1="125.60" x2="107.00" y2="125.60" stroke="rgb(51,51,51)" stroke-width="1.5" marker-end="url(#seq-arrow)"/><text x="76.00" y="116.20" text-anchor="middle" dominant-baseline="central" font-family="sans-serif" font-size="16" fill="rgb(51,51,51)">connect</text><path d="M36.00,209.20 L72.00,209.20 L72.00,237.20 L45.00,237.20" fill="none" stroke="rgb(51,51,51)" stroke-width="1.5" marker-end="url(#seq-arrow)"/><text x="76.00" y="223.20" text-anchor="start" dominant-baseline="central" font-family="sans-serif" font-size="16" fill="rgb(51,51,51)">retry</text></svg>