<svg xmlns="http://www.w3.org/2000/svg" width="257" height="334" viewBox="0 0 257 334"><rect x="0" y="0" width="259" height="336" fill="rgb(255,255,255)"/><defs><marker id="seq-arrow" markerWidth="9" markerHeight="8" refX="9" refY="4" orient="auto" markerUnits="userSpaceOnUse"><path d="M0,0 L9,4 L0,8 Z" fill="rgb(51,51,51)"/></marker></defs><line x1="45.34" y1="51.20" x2="45.34" y2="316.20" stroke="rgb(51,51,51)" stroke-width="1.5" stroke-dasharray="3 3"/><line x1="144.02" y1="51.20" x2="144.02" y2="316.20" stroke="rgb(51,51,51)" stroke-width="1.5" stroke-dasharray="3 3"/><rect x="16.00" y="16.00" width="58.68" height="35.20" rx="3" ry="3" fill="rgb(236,236,255)" stroke="rgb(147,112,219)" stroke-width="1.5"/><text x="45.34" y="33.60" text-anchor="middle" dominant-baseline="central" font-family="sans-serif" font-size="16" fill="rgb(51,51,51)">Alice</text><rect x="117.79" y="16.00" width="52.47" height="35.20" rx="3" ry="3" fill="rgb(236,236,255)" stroke="rgb(147,112,219)" stroke-width="1.5"/><text x="144.02" y="33.60" text-anchor="middle" dominant-baseline="central" font-family="sans-serif" font-size="16" fill="rgb(51,51,51)">Bob</text><line x1="45.34" y1="81.20" x2="135.02" y2="81.20" stroke="rgb(51,51,51)" stroke-width="1.5" marker-end="url(#seq-arrow)"/><text x="94.68" y="71.80" text-anchor="middle" dominant-baseline="central" font-family="sans-serif" font-size="16" fill="rgb(51,51,51)">Hello Bob</text><line x1="144.02" y1="127.20" x2="54.34" y2="127.20" stroke="rgb(51,51,51)" stroke-width="1.5" stroke-dasharray="4 3" marker-end="url(#seq-arrow)"/><text x="94.68" y="117.80" text-anchor="middle" dominant-baseline="central" font-family="sans-serif" font-size="16" fill="rgb(51,51,51)">Hi Alice</text><line x1="45.34" y1="173.20" x2="135.02" y2="173.20" stroke="rgb(51,51,51)" stroke-width="1.5" marker-end="url(#seq-arrow)"/><text x="94.68" y="163.80" text-anchor="middle" dominant-baseline="central" font-family="sans-serif" font-size="16" fill="rgb(51,51,51)">How are you?</text><path d="M144.02,219.20 L180.02,219.20 L180.02,247.20 L153.02,247.20" fill="none" stroke="rgb(51,51,51)" stroke-width="1.5" marker-end="url(#seq-arrow)"/><text x="184.02" y="233.20" text-anchor="start" dominant-baseline="central" font-family="sans-serif" font-size="16" fill="rgb(51,51,51)">thinking</text><line x1="144.02" y1="270.20" x2="54.34" y2="270.20" stroke="rgb(51,51,51)" stroke-width="1.5" stroke-dasharray="4 3" marker-end="url(#seq-arrow)"/><text x="94.68" y="260.80" text-anchor="middle" dominant-baseline="central" font-family="sans-serif" font-size="16" fill="rgb(51,51,51)">Great!</text></svg>