<svg xmlns="http://www.w3.org/2000/svg" width="189" height="313" viewBox="0 0 189 313"><rect x="0" y="0" width="191" height="315" fill="rgb(255,255,255)"/><defs><marker id="seq-arrow" markerWidth="9" markerHeight="8" refX="9" refY="4" orient="auto" markerUnits="userSpaceOnUse"><path d="M0,0 L9,4 L0,8 Z" fill="rgb(51,51,51)"/></marker></defs><rect x="6.00" y="127.20" width="140.00" height="112.70" fill="rgb(200,220,255)" fill-opacity="0.3137"/><line x1="36.00" y1="51.20" x2="36.00" y2="295.10" stroke="rgb(51,51,51)" stroke-width="1.5" stroke-dasharray="3 3"/><line x1="116.00" y1="51.20" x2="116.00" y2="295.10" stroke="rgb(51,51,51)" stroke-width="1.5" stroke-dasharray="3 3"/><rect x="16.00" y="16.00" width="40.00" height="35.20" rx="3" ry="3" fill="rgb(236,236,255)" stroke="rgb(147,112,219)" stroke-width="1.5"/><text x="36.00" y="33.60" text-anchor="middle" dominant-baseline="central" font-family="sans-serif" font-size="16" fill="rgb(51,51,51)">A</text><rect x="96.00" y="16.00" width="40.00" height="35.20" rx="3" ry="3" fill="rgb(236,236,255)" stroke="rgb(147,112,219)" stroke-width="1.5"/><text x="116.00" y="33.60" text-anchor="middle" dominant-baseline="central" font-family="sans-serif" font-size="16" fill="rgb(51,51,51)">B</text><line x1="36.00" y1="81.20" x2="107.00" y2="81.20" stroke="rgb(51,51,51)" stroke-width="1.5" marker-end="url(#seq-arrow)"/><text x="76.00" y="71.80" text-anchor="middle" dominant-baseline="central" font-family="sans-serif" font-size="16" fill="rgb(51,51,51)">before</text><line x1="116.00" y1="143.30" x2="45.00" y2="143.30" stroke="rgb(51,51,51)" stroke-width="1.5" marker-end="url(#seq-arrow)"/><text x="76.00" y="133.90" text-anchor="middle" dominant-baseline="central" font-family="sans-serif" font-size="16" fill="rgb(51,51,51)">inside</text><line x1="36.00" y1="189.30" x2="107.00" y2="189.30" stroke="rgb(51,51,51)" stroke-width="1.5" marker-end="url(#seq-arrow)"/><text x="76.00" y="179.90" text-anchor="middle" dominant-baseline="central" font-family="sans-serif" font-size="16" fill="rgb(51,51,51)">inside2</text><line x1="36.00" y1="249.10" x2="107.00" y2="249.10" stroke="rgb(51,51,51)" stroke-width="1.5" marker-end="url(#seq-arrow)"/><text x="76.00" y="239.70" text-anchor="middle" dominant-baseline="central" font-family="sans-serif" font-size="16" fill="rgb(51,51,51)">after</text></svg>