<svg xmlns="http://www.w3.org/2000/svg" width="200" height="293" viewBox="0 0 200 293"><rect x="0" y="0" width="202" height="295" fill="rgb(255,255,255)"/><defs><marker id="state-arrow" markerWidth="9" markerHeight="8" refX="9" refY="4" orient="auto" markerUnits="userSpaceOnUse"><path d="M0,0 L9,4 L0,8 Z" fill="rgb(51,51,51)"/></marker></defs><path d="M99.26,18.00 C99.26,22.17 99.26,36.17 99.26,43.00 C99.26,49.83 99.26,56.33 99.26,59.00" fill="none" stroke="rgb(51,51,51)" stroke-width="1.5" marker-end="url(#state-arrow)"/><path d="M88.90,78.00 C80.27,82.17 45.76,96.17 37.13,103.00 C28.50,109.83 37.13,116.33 37.13,119.00" fill="none" stroke="rgb(51,51,51)" stroke-width="1.5" marker-end="url(#state-arrow)"/><path d="M109.61,78.00 C118.24,82.17 152.76,96.17 161.39,103.00 C170.02,109.83 161.39,116.33 161.39,119.00" fill="none" stroke="rgb(51,51,51)" stroke-width="1.5" marker-end="url(#state-arrow)"/><path d="M37.13,163.20 C37.13,167.37 29.85,180.52 37.13,188.20 C44.41,195.88 73.52,205.77 80.80,209.29" fill="none" stroke="rgb(51,51,51)" stroke-width="1.5" marker-end="url(#state-arrow)"/><path d="M161.39,163.20 C161.39,167.37 168.66,180.52 161.39,188.20 C154.11,195.88 125.00,205.77 117.72,209.29" fill="none" stroke="rgb(51,51,51)" stroke-width="1.5" marker-end="url(#state-arrow)"/><path d="M99.26,223.20 C99.26,227.37 99.26,241.37 99.26,248.20 C99.26,255.03 99.26,261.53 99.26,264.20" fill="none" stroke="rgb(51,51,51)" stroke-width="1.5" marker-end="url(#state-arrow)"/><rect x="64.26" y="68.00" width="70.00" height="10.00" rx="2" ry="2" fill="rgb(147,112,219)"/><circle cx="99.26" cy="9.00" r="9.00" fill="rgb(147,112,219)"/><rect x="0.00" y="128.00" width="74.26" height="35.20" rx="6" ry="6" fill="rgb(236,236,255)" stroke="rgb(147,112,219)" stroke-width="1.5"/><text x="37.13" y="145.60" text-anchor="middle" dominant-baseline="central" font-family="sans-serif" font-size="16" fill="rgb(51,51,51)">State2</text><rect x="124.26" y="128.00" width="74.26" height="35.20" rx="6" ry="6" fill="rgb(236,236,255)" stroke="rgb(147,112,219)" stroke-width="1.5"/><text x="161.39" y="145.60" text-anchor="middle" dominant-baseline="central" font-family="sans-serif" font-size="16" fill="rgb(51,51,51)">State3</text><rect x="64.26" y="213.20" width="70.00" height="10.00" rx="2" ry="2" fill="rgb(147,112,219)"/><circle cx="99.26" cy="282.20" r="9.00" fill="none" stroke="rgb(147,112,219)" stroke-width="1.5"/><circle cx="99.26" cy="282.20" r="5.00" fill="rgb(147,112,219)"/></svg>