<svg xmlns="http://www.w3.org/2000/svg" width="129" height="220" viewBox="0 0 129 220"><rect x="0" y="0" width="131" height="222" fill="rgb(255,255,255)"/><defs><marker id="state-arrow" markerWidth="9" markerHeight="8" refX="9" refY="4" orient="auto" markerUnits="userSpaceOnUse"><path d="M0,0 L9,4 L0,8 Z" fill="rgb(51,51,51)"/></marker></defs><path d="M63.67,18.00 C63.67,22.17 63.67,36.17 63.67,43.00 C63.67,49.83 63.67,56.33 63.67,59.00" fill="none" stroke="rgb(51,51,51)" stroke-width="1.5" marker-end="url(#state-arrow)"/><path d="M48.28,108.00 C43.45,114.27 24.16,134.57 19.34,145.60 C14.51,156.63 19.34,169.43 19.34,174.20" fill="none" stroke="rgb(51,51,51)" stroke-width="1.5" marker-end="url(#state-arrow)"/><text x="19.34" y="145.60" text-anchor="middle" dominant-baseline="central" font-family="sans-serif" font-size="16" fill="rgb(51,51,51)">yes</text><path d="M79.07,108.00 C83.89,114.27 103.18,134.57 108.01,145.60 C112.83,156.63 108.01,169.43 108.01,174.20" fill="none" stroke="rgb(51,51,51)" stroke-width="1.5" marker-end="url(#state-arrow)"/><text x="108.01" y="145.60" text-anchor="middle" dominant-baseline="central" font-family="sans-serif" font-size="16" fill="rgb(51,51,51)">no</text><polygon points="43.67,88.00 63.67,68.00 83.67,88.00 63.67,108.00" fill="rgb(236,236,255)" stroke="rgb(147,112,219)" stroke-width="1.5"/><circle cx="63.67" cy="9.00" r="9.00" fill="rgb(147,112,219)"/><rect x="0.00" y="183.20" width="38.67" height="35.20" rx="6" ry="6" fill="rgb(236,236,255)" stroke="rgb(147,112,219)" stroke-width="1.5"/><text x="19.34" y="200.80" text-anchor="middle" dominant-baseline="central" font-family="sans-serif" font-size="16" fill="rgb(51,51,51)">A</text><rect x="88.67" y="183.20" width="38.67" height="35.20" rx="6" ry="6" fill="rgb(236,236,255)" stroke="rgb(147,112,219)" stroke-width="1.5"/><text x="108.01" y="200.80" text-anchor="middle" dominant-baseline="central" font-family="sans-serif" font-size="16" fill="rgb(51,51,51)">B</text></svg>